<?xml version="1.0" standalone="no"?>
<!DOCTYPE svg PUBLIC "-//W3C//DTD SVG 20010904//EN"
 "http://www.w3.org/TR/2001/REC-SVG-20010904/DTD/svg10.dtd">
<svg version="1.0" xmlns="http://www.w3.org/2000/svg"
 width="959.000000pt" height="1280.000000pt" viewBox="0 0 959.000000 1280.000000"
 preserveAspectRatio="xMidYMid meet">

<g transform="translate(0.000000,1280.000000) scale(0.100000,-0.100000)"
fill="#000000" stroke="none">
<path d="M8360 10890 c0 -5 5 -10 11 -10 7 0 5 -9 -4 -24 -12 -17 -13 -26 -4
-35 8 -8 8 -11 -3 -11 -10 0 -9 -4 3 -18 10 -10 14 -21 11 -25 -3 -3 -8 -31
-11 -63 -4 -40 -1 -59 8 -65 11 -6 11 -12 -1 -33 -7 -14 -10 -29 -6 -33 4 -4
9 3 13 15 5 22 23 31 23 11 0 -21 22 5 40 47 11 24 24 44 30 44 13 0 3 68 -13
88 -9 11 -13 11 -24 -4 -12 -16 -13 -14 -13 17 0 19 -6 47 -12 61 -13 28 -48
55 -48 38z"/>
<path d="M7775 10694 c-5 -34 -3 -49 7 -55 10 -7 8 -9 -6 -9 -12 0 -16 -5 -12
-16 3 -9 6 -21 6 -27 0 -7 7 -20 14 -30 11 -14 19 -16 40 -7 14 5 25 15 24 21
-2 6 3 14 11 17 11 3 12 -2 7 -23 -11 -43 32 -100 81 -108 65 -11 146 -8 208
8 33 9 71 13 85 10 16 -4 20 -3 12 3 -11 7 -6 14 20 30 58 36 85 105 53 132
-9 7 -14 19 -11 27 10 24 -43 35 -142 29 -50 -3 -119 -12 -152 -21 -62 -16
-130 -51 -130 -66 0 -5 -10 -9 -22 -9 -30 0 -52 -15 -44 -29 5 -7 -1 -11 -15
-11 -15 0 -19 4 -13 9 11 12 6 171 -6 171 -4 0 -11 -21 -15 -46z"/>
<path d="M7826 10521 c-19 -7 -19 -8 2 -13 15 -4 22 -2 22 8 0 8 -1 14 -2 13
-2 0 -12 -4 -22 -8z"/>
<path d="M3225 9930 c-3 -5 1 -10 10 -10 9 0 13 5 10 10 -3 6 -8 10 -10 10 -2
0 -7 -4 -10 -10z"/>
<path d="M4967 9344 c17 -7 35 -19 39 -26 5 -9 2 -8 -10 1 -11 9 -20 11 -24 5
-10 -15 -72 -38 -101 -38 -14 -1 -35 7 -46 17 -16 15 -21 16 -23 4 -4 -17 -40
-29 -56 -19 -16 10 -130 2 -137 -10 -4 -7 -9 -6 -13 1 -12 19 -39 13 -33 -8 4
-15 -2 -20 -24 -23 -15 -2 -27 0 -26 5 1 5 -9 13 -22 18 -24 9 -24 9 -8 -9 9
-10 17 -21 17 -24 0 -3 -24 -3 -52 0 -51 4 -52 4 -33 -13 19 -16 18 -16 -8 0
-32 19 -46 13 -27 -10 11 -13 10 -14 -4 -9 -9 3 -16 10 -16 15 0 5 -5 9 -11 9
-5 0 -8 -4 -5 -8 7 -12 -67 -12 -82 0 -7 6 -15 9 -18 6 -3 -3 10 -15 28 -27
36 -23 28 -28 -11 -7 -15 9 -36 10 -63 6 -23 -5 -54 -4 -70 0 -17 5 -26 5 -23
-1 4 -5 13 -9 21 -9 18 0 13 -24 -4 -26 -7 -1 -19 -2 -27 -3 -21 -1 -19 -21 2
-21 9 0 13 -3 10 -6 -6 -7 -25 -10 -82 -13 -29 -2 -29 -3 10 -16 27 -9 33 -13
18 -14 -12 -1 -23 -6 -25 -11 -2 -6 -21 -17 -43 -25 -22 -8 -39 -19 -38 -24 2
-6 -8 -11 -21 -11 -19 0 -23 -5 -20 -26 1 -16 -3 -27 -14 -31 -9 -4 -20 -11
-24 -17 -4 -7 -29 -9 -60 -7 -29 2 -78 4 -108 5 -30 0 -58 5 -62 11 -9 12 -11
-37 -2 -59 9 -23 23 -10 17 15 -8 28 18 21 32 -9 5 -11 21 -23 35 -25 24 -4
23 -4 -4 -6 -24 -1 -27 -3 -16 -16 15 -18 -1 -20 -18 -3 -9 9 -12 8 -12 -5 0
-9 -7 -17 -15 -17 -8 0 -15 -4 -15 -9 0 -11 -39 -9 -58 3 -6 4 -21 -1 -32 -12
-21 -19 -21 -19 12 -18 18 1 36 5 39 10 4 4 10 3 13 -3 4 -6 2 -11 -3 -11 -6
0 -11 -6 -11 -14 0 -7 -21 -21 -47 -31 -83 -31 -156 -66 -150 -72 4 -3 27 4
52 16 56 26 65 27 32 1 -14 -11 -31 -20 -37 -20 -10 0 -10 -3 -1 -14 9 -11 9
-16 0 -22 -8 -4 -9 -3 -5 4 10 16 -3 14 -34 -3 -20 -11 -21 -14 -7 -15 23 0
13 -19 -11 -19 -49 -2 -184 -20 -190 -26 -3 -3 43 -4 103 -1 61 3 101 3 90 0
-26 -8 -46 -24 -40 -34 2 -4 -22 -31 -55 -59 -33 -29 -60 -58 -60 -64 0 -7 -9
-20 -20 -30 -21 -18 -26 -37 -10 -37 6 0 10 4 10 9 0 5 8 12 17 15 16 6 16 6
0 -12 -9 -10 -17 -27 -17 -38 0 -15 -2 -16 -9 -5 -7 11 -11 5 -16 -22 -4 -21
-17 -45 -29 -55 -20 -17 -66 -97 -66 -115 0 -11 -59 -67 -70 -67 -4 0 -13 -13
-20 -30 -7 -16 -17 -30 -23 -30 -7 0 -6 -5 2 -12 10 -11 16 -8 32 11 28 35 35
18 10 -23 -12 -19 -24 -48 -27 -62 -8 -43 -16 -49 -30 -23 -16 29 -18 20 -4
-16 7 -18 7 -32 -1 -43 -10 -16 -10 -16 -5 1 3 10 0 17 -8 17 -9 0 -12 -7 -10
-17 4 -14 -1 -18 -25 -18 -23 0 -31 5 -31 18 0 10 -7 20 -15 24 -23 8 -33 -7
-12 -18 21 -12 22 -26 3 -45 -17 -16 -46 -19 -46 -4 0 6 -4 10 -10 10 -5 0
-10 -7 -10 -15 0 -8 5 -15 10 -15 6 0 3 -9 -8 -20 -13 -15 -29 -19 -64 -17
-25 1 -44 6 -41 11 3 4 -5 5 -18 1 -18 -5 -21 -4 -9 4 8 6 23 8 33 5 14 -4 17
1 17 25 0 30 -1 31 -50 31 -34 0 -49 4 -48 12 2 7 -8 13 -22 14 -14 2 -32 4
-40 5 -8 1 -24 1 -35 0 -17 -2 -16 -4 8 -17 15 -8 27 -19 27 -25 0 -6 -7 -3
-16 5 -8 9 -25 16 -36 16 -14 0 -18 5 -14 15 3 8 1 15 -4 15 -6 0 -10 -5 -10
-10 0 -6 -10 -10 -22 -9 -39 3 -59 -1 -53 -11 3 -5 12 -7 20 -3 8 3 15 0 15
-6 0 -6 -4 -11 -10 -11 -5 0 -10 -10 -11 -22 0 -22 -1 -22 -9 -3 -11 26 -12 9
-1 -37 5 -21 5 -36 1 -33 -5 3 -7 -21 -4 -52 2 -37 1 -49 -4 -33 -7 22 -9 23
-15 7 -4 -11 -5 -23 -1 -28 3 -5 -2 -9 -10 -9 -9 0 -16 -4 -16 -10 0 -5 7 -10
15 -10 8 0 15 -4 15 -10 0 -5 -7 -10 -15 -10 -22 0 -18 -17 5 -23 24 -6 27
-25 4 -23 -9 0 -19 -5 -22 -13 -3 -10 2 -13 22 -9 36 7 32 -23 -4 -33 -14 -4
-19 -7 -12 -8 17 -1 15 -30 -3 -37 -23 -9 -18 -24 9 -24 14 0 28 -4 31 -10 3
-5 -2 -10 -12 -10 -15 0 -16 -2 -3 -11 11 -8 12 -12 3 -16 -18 -7 -16 -26 2
-19 10 4 15 -1 15 -14 0 -14 -5 -18 -17 -14 -12 4 -14 3 -6 -3 17 -12 22 -172
5 -166 -10 4 -11 -4 -6 -35 4 -23 1 -56 -6 -77 -8 -25 -9 -39 -2 -44 6 -4 7
-22 2 -49 -4 -25 -3 -45 2 -48 5 -3 2 -14 -7 -24 -14 -15 -14 -18 -1 -23 12
-5 12 -13 4 -47 -8 -30 -8 -44 0 -49 6 -3 10 -15 8 -26 -2 -15 -11 -20 -34
-20 -24 0 -32 -4 -32 -17 0 -10 -4 -18 -10 -18 -15 0 -12 -70 4 -86 9 -9 17
-10 21 -4 3 5 1 10 -6 10 -7 0 -9 11 -5 33 9 50 12 58 19 57 4 0 17 0 30 -1
12 0 16 -3 10 -6 -7 -2 -13 -13 -13 -23 0 -10 -5 -22 -11 -25 -6 -4 -7 -19 -4
-36 6 -25 4 -29 -14 -29 -12 0 -21 -4 -21 -10 0 -5 5 -10 10 -10 21 0 9 -20
-15 -26 -22 -5 -25 -12 -25 -49 0 -49 -13 -64 -36 -41 -8 9 -27 15 -42 15 -26
-2 -26 -2 -3 -6 27 -5 51 -26 51 -44 0 -6 8 -18 17 -25 12 -9 14 -13 5 -14 -7
0 -20 7 -28 15 -9 8 -33 15 -55 15 -28 0 -39 -4 -39 -15 0 -11 11 -15 40 -15
38 0 40 -2 40 -30 0 -16 5 -30 10 -30 6 0 10 -5 10 -11 0 -11 -15 -9 -50 5 -8
3 -22 2 -30 -4 -13 -8 -12 -11 5 -24 19 -14 19 -15 1 -22 -11 -4 -21 -2 -26 6
-5 9 -9 9 -15 1 -9 -16 10 -38 40 -45 21 -5 25 -12 25 -46 0 -29 -4 -40 -15
-40 -11 0 -15 -11 -15 -40 0 -22 -4 -40 -10 -40 -6 0 -10 -37 -10 -91 0 -76 3
-94 17 -105 17 -13 17 -13 1 -14 -27 0 -22 -20 5 -20 22 -1 22 -1 -3 -15 -14
-8 -42 -14 -62 -15 -21 0 -38 -4 -38 -10 0 -5 20 -10 44 -10 25 0 47 -4 50 -9
4 -5 -16 -8 -44 -7 -47 3 -50 1 -50 -21 0 -18 5 -23 26 -23 l26 0 -22 -18
c-26 -21 -20 -42 13 -42 20 -1 19 -3 -11 -30 -26 -24 -41 -30 -77 -30 -24 0
-47 -4 -50 -10 -3 -5 -1 -10 4 -10 6 0 11 -18 11 -40 0 -22 -4 -40 -8 -40 -5
0 -8 -17 -8 -37 1 -36 -1 -38 -29 -36 -20 1 -23 0 -7 -4 18 -4 22 -11 22 -44
0 -35 -3 -39 -24 -39 -15 0 -26 -7 -29 -17 -3 -15 -6 -13 -14 7 -20 46 -43 58
-98 50 l-50 -7 43 -2 c49 -1 58 -21 9 -21 -18 0 -55 -7 -82 -17 -40 -13 -46
-18 -30 -24 38 -15 65 -10 65 11 0 11 5 20 10 20 6 0 10 -18 10 -41 0 -35 -3
-40 -19 -34 -10 3 -29 1 -42 -4 -23 -9 -22 -10 9 -10 40 -1 43 -21 2 -21 -16
0 -30 -4 -30 -10 0 -6 30 -10 70 -10 58 0 70 -3 70 -16 0 -14 -10 -16 -72 -11
-40 3 -65 3 -55 1 26 -8 21 -24 -8 -24 -18 0 -25 -5 -25 -20 0 -15 7 -20 25
-20 14 0 25 -4 25 -10 0 -5 7 -10 15 -10 11 0 15 -11 15 -40 0 -38 -2 -40 -30
-40 -28 0 -30 -2 -30 -40 0 -33 3 -40 20 -40 11 0 20 -4 20 -10 0 -14 -38 -12
-42 2 -3 8 -13 4 -29 -11 -22 -21 -23 -23 -7 -35 20 -14 26 -106 8 -106 -5 0
-10 17 -10 39 0 28 -5 40 -17 45 -10 3 -24 9 -30 12 -7 3 -13 1 -13 -5 0 -6 7
-11 15 -11 11 0 15 -11 15 -40 0 -42 -5 -46 -57 -41 -21 1 -21 0 -7 -29 9 -16
20 -30 25 -30 5 0 9 -4 9 -10 0 -5 -7 -10 -15 -10 -8 0 -15 5 -15 10 0 6 -9
10 -20 10 -11 0 -20 -4 -20 -10 0 -5 7 -10 16 -10 9 0 26 -8 37 -17 17 -14 21
-27 19 -56 -2 -21 2 -44 8 -52 8 -9 8 -14 0 -17 -8 -2 -8 -11 -2 -29 13 -32
-1 -60 -19 -42 -9 9 -9 16 1 28 17 21 5 31 -15 12 -20 -21 -19 -40 5 -57 14
-10 20 -26 20 -50 -1 -29 -8 -40 -40 -65 -40 -31 -49 -50 -27 -58 9 -4 8 -8
-3 -16 -11 -8 -18 -7 -26 4 -26 34 -60 4 -66 -58 -3 -28 -1 -29 45 -31 27 -1
47 3 47 9 0 6 -18 9 -46 6 l-47 -3 22 23 c22 24 23 24 37 4 12 -16 16 -17 23
-6 8 12 11 12 23 0 8 -8 18 -23 22 -34 8 -19 8 -19 17 3 6 16 16 22 36 21 22
-1 24 -3 7 -6 -16 -3 -24 -14 -28 -39 -8 -39 -30 -45 -40 -12 -7 21 -8 22 -15
4 -4 -10 -4 -41 -1 -68 6 -46 5 -50 -20 -63 -15 -8 -30 -24 -33 -36 -5 -18
-11 -20 -49 -15 -33 4 -37 3 -18 -4 21 -8 19 -9 -17 -7 -54 3 -56 -11 -3 -19
24 -4 40 -12 40 -20 0 -11 -10 -13 -40 -8 -26 4 -40 3 -40 -4 0 -6 17 -13 38
-15 l37 -4 -36 -1 c-42 -2 -69 -26 -51 -44 9 -9 12 -9 12 0 0 7 16 12 40 12
30 0 40 4 40 16 0 14 3 14 15 4 19 -16 19 -30 0 -30 -25 0 -19 -55 8 -68 l22
-11 -22 0 c-40 -2 -25 -20 20 -24 l42 -4 -45 -2 c-35 -2 -41 -4 -25 -11 17 -7
17 -9 3 -9 -14 -1 -18 -10 -18 -36 0 -19 -4 -35 -8 -35 -4 0 -6 15 -4 34 2 18
-1 37 -7 40 -7 5 -11 -5 -11 -29 0 -49 -39 -87 -53 -52 -3 6 -6 -7 -6 -30 -1
-54 -21 -57 -21 -3 0 22 -4 40 -10 40 -5 0 -10 -18 -10 -40 0 -22 5 -40 10
-40 7 0 10 -30 8 -83 -3 -76 -5 -82 -25 -85 -13 -2 -23 -6 -23 -10 0 -9 49
-32 67 -32 7 0 13 -4 13 -10 0 -13 -12 -13 -46 0 -27 11 -47 5 -28 -8 5 -4 7
-20 3 -37 l-7 -30 -1 28 c0 15 -7 36 -13 47 -10 16 -10 24 0 40 13 22 3 27
-16 8 -17 -17 -15 -43 3 -58 11 -9 15 -27 13 -54 -3 -39 -4 -41 -35 -40 -37 2
-41 -3 -15 -22 16 -13 16 -13 0 -14 -10 0 -18 -4 -18 -10 0 -5 13 -7 28 -4 34
7 62 -16 62 -50 0 -12 5 -27 12 -34 6 -6 9 -15 5 -19 -11 -10 -20 4 -26 44 -4
26 -12 39 -25 41 -28 6 -96 -19 -96 -35 0 -9 -18 -13 -62 -15 -50 -1 -54 -2
-20 -5 54 -5 54 -21 0 -26 l-43 -4 43 -1 c38 -2 42 -5 42 -27 0 -22 -4 -25
-40 -25 -36 0 -40 -2 -40 -25 0 -23 -2 -24 -20 -13 -15 10 -25 10 -38 2 -19
-13 -29 -44 -13 -44 6 0 11 7 11 15 0 8 9 15 20 15 11 0 20 -7 20 -15 0 -8 5
-15 10 -15 6 0 10 -7 10 -15 0 -10 11 -15 33 -16 24 -1 26 -3 9 -6 -13 -3 -37
0 -55 7 -27 9 -34 8 -45 -7 -7 -10 -11 -30 -8 -45 3 -16 1 -28 -4 -28 -6 0
-10 -11 -10 -25 0 -22 -4 -25 -40 -25 -39 0 -40 -1 -39 -32 1 -18 3 -25 6 -15
6 24 29 21 37 -5 l7 -23 10 25 c6 14 13 20 17 14 4 -6 16 -14 27 -19 19 -8 19
-9 -4 -13 -13 -2 -26 -12 -28 -23 -7 -26 -29 -24 -37 4 -6 22 -6 21 -21 -7 -8
-15 -15 -36 -15 -46 0 -10 -7 -20 -15 -24 -19 -7 -19 -26 0 -26 22 0 18 -17
-5 -23 -25 -6 -26 -25 -2 -34 26 -10 44 -31 32 -38 -5 -3 -10 -1 -10 4 0 6 -6
11 -14 11 -19 0 -59 -77 -43 -84 7 -2 4 -5 -5 -5 -23 -1 -26 -61 -4 -61 12 0
13 -6 4 -31 -7 -21 -13 -27 -18 -18 -6 9 -18 4 -45 -19 l-36 -32 41 0 c23 0
40 -5 40 -11 0 -8 -13 -9 -39 -5 -33 5 -44 2 -71 -20 -24 -21 -28 -29 -18 -36
9 -7 8 -8 -7 -6 -12 2 -21 12 -23 25 -3 21 -37 41 -49 29 -10 -10 7 -38 26
-43 11 -3 21 -13 24 -23 3 -13 0 -17 -9 -13 -8 3 -14 0 -14 -6 0 -7 -10 -9
-27 -5 l-28 7 24 -23 c13 -13 26 -19 30 -14 3 5 49 23 101 41 260 87 395 134
404 142 18 14 166 58 256 76 86 17 137 17 422 -1 141 -9 256 25 392 116 48 32
119 65 216 100 205 74 329 142 380 207 11 16 53 61 93 102 93 95 183 141 278
141 86 1 136 24 182 88 55 74 112 122 145 121 15 0 21 -3 12 -6 -21 -9 -49
-43 -66 -80 -34 -78 0 -392 60 -547 13 -34 34 -88 45 -120 34 -92 92 -183 180
-282 58 -66 93 -97 124 -109 149 -60 251 -88 472 -131 77 -14 174 -35 215 -46
41 -10 109 -21 150 -24 41 -2 91 -6 110 -9 65 -8 344 13 465 35 283 50 480
126 694 268 154 103 332 304 418 475 92 183 165 463 131 504 -6 7 -7 13 -4 13
9 0 59 -32 71 -46 15 -17 124 -88 170 -112 50 -25 93 -34 170 -37 66 -2 148
-38 220 -95 57 -45 85 -58 162 -74 38 -8 82 -20 98 -26 40 -15 134 -36 180
-39 17 -1 18 -3 5 -11 -8 -5 -10 -10 -5 -10 6 0 16 5 23 12 7 7 12 8 12 2 0
-5 4 -4 8 1 4 6 39 25 77 42 63 28 78 31 146 28 125 -7 234 -35 319 -84 8 -5
35 -17 60 -27 25 -10 73 -35 108 -56 80 -47 129 -61 216 -59 54 1 81 8 128 32
52 26 66 29 120 24 34 -3 87 -14 117 -24 76 -25 212 -94 235 -120 27 -30 37
-26 20 8 -8 16 -16 64 -18 107 -8 140 -35 597 -41 664 -2 36 -7 110 -10 165
-7 139 -12 216 -35 570 -25 393 -58 961 -66 1130 -3 72 -7 140 -9 153 -2 12
-9 132 -14 265 -6 133 -13 265 -16 292 -9 87 -50 896 -75 1479 -6 152 -13 213
-22 223 -14 13 -107 9 -373 -17 -55 -5 -165 -14 -245 -20 -171 -12 -553 -41
-945 -71 -154 -12 -311 -22 -350 -23 l-69 -1 -9 45 c-9 51 0 207 14 215 4 3 6
18 3 33 -2 15 -6 70 -8 122 -3 52 -7 109 -11 125 l-6 30 16 -30 c8 -16 13 -22
10 -12 -3 10 -5 30 -5 43 0 17 -4 23 -12 18 -7 -5 -9 -2 -6 8 3 8 -1 39 -9 69
-8 30 -17 66 -20 82 -3 15 -9 27 -14 27 -5 0 -9 11 -9 24 0 14 -5 28 -11 31
-6 4 -8 14 -5 22 7 18 -10 51 -37 73 -10 9 -21 28 -22 42 -6 50 -106 166 -222
255 -29 23 -49 44 -45 48 4 4 -3 4 -15 1 -13 -4 -24 -2 -29 5 -5 9 -2 10 9 6
22 -8 22 4 0 24 -10 9 -25 25 -34 35 -9 10 -56 57 -105 104 -49 47 -88 88 -87
91 2 7 -107 59 -123 59 -5 1 -27 17 -49 36 -25 23 -33 34 -20 30 19 -6 19 -6
-1 12 -11 9 -19 23 -16 30 2 6 0 12 -5 12 -4 0 -20 11 -35 24 -14 14 -28 22
-31 19 -3 -3 -11 -2 -18 3 -9 5 -7 9 7 15 10 4 -7 5 -38 2 -40 -4 -58 -2 -58
6 0 6 -9 11 -19 11 -11 0 -23 5 -26 10 -4 6 -10 8 -15 5 -5 -3 -11 -1 -15 5
-3 5 -16 10 -28 11 -12 0 -16 3 -9 6 10 4 10 8 1 19 -7 9 -31 14 -65 14 -30 0
-54 5 -54 10 0 7 -37 10 -100 9 -64 -1 -105 3 -114 11 -11 8 -25 9 -50 1 -25
-6 -36 -6 -36 1 0 7 -5 6 -14 -1 -11 -9 -29 -10 -71 -2 -32 6 -61 8 -67 5 -5
-3 -16 0 -24 7 -8 6 -17 9 -21 6 -3 -4 -13 -1 -21 6 -13 10 -14 9 -8 -1 4 -7
-15 -2 -43 12 -28 14 -56 26 -63 25 -7 0 1 -7 19 -15z m-377 -74 c0 -5 -2 -10
-4 -10 -3 0 -8 5 -11 10 -3 6 -1 10 4 10 6 0 11 -4 11 -10z m-815 -349 l30 -7
-34 -7 c-22 -5 -39 -3 -49 5 -13 10 -14 10 -8 1 10 -18 -2 -16 -20 2 -14 13
-12 15 18 14 18 -1 47 -4 63 -8z m-390 -371 c-3 -5 -11 -10 -16 -10 -6 0 -7 5
-4 10 3 6 11 10 16 10 6 0 7 -4 4 -10z m1430 -525 c35 0 47 -14 40 -48 -7 -31
-6 -31 9 -12 15 20 15 20 16 -2 0 -13 5 -23 10 -23 6 0 10 9 10 20 0 29 14 25
27 -7 11 -28 11 -28 12 -4 1 24 1 24 16 5 11 -14 15 -16 15 -4 0 12 3 11 11
-3 9 -15 13 -16 26 -6 12 10 16 10 22 0 7 -10 13 -10 30 -2 11 7 21 16 21 22
0 6 6 7 12 3 18 -11 90 -12 112 -1 11 6 21 5 25 0 9 -14 69 -24 76 -13 4 6 11
7 17 4 17 -11 66 -13 96 -5 15 4 44 4 64 1 20 -4 41 -4 45 0 4 4 30 10 56 14
44 5 48 4 57 -19 6 -15 15 -23 23 -19 8 2 32 1 55 -5 25 -5 42 -5 42 0 0 5 10
3 23 -6 13 -8 27 -12 30 -9 4 4 13 1 21 -5 8 -7 19 -10 24 -7 5 3 40 -6 78
-19 49 -17 71 -21 75 -13 6 9 12 8 23 -1 9 -7 13 -18 9 -24 -4 -6 4 -8 21 -5
15 3 24 3 22 0 -9 -9 28 -31 51 -32 25 0 39 -16 21 -23 -8 -3 -3 -9 12 -15 18
-8 20 -11 8 -11 -22 -1 -24 -21 -3 -21 8 0 15 -4 15 -10 0 -5 -7 -10 -15 -10
-8 0 -15 -4 -15 -10 0 -5 9 -10 20 -10 11 0 20 5 20 10 0 6 4 10 10 10 5 0 8
-10 6 -22 -1 -13 4 -28 13 -35 14 -10 13 -13 -8 -21 -15 -5 -20 -11 -13 -16 6
-4 9 -13 5 -21 -3 -9 0 -21 6 -29 7 -8 9 -29 5 -54 -4 -25 -2 -42 5 -46 7 -5
12 9 13 41 1 48 1 48 7 -12 7 -65 3 -85 -10 -64 -6 9 -9 0 -9 -26 0 -45 12
-71 29 -61 6 4 11 3 11 -3 0 -5 -10 -11 -22 -13 -13 -2 -23 -10 -23 -18 0 -8
6 -14 13 -12 10 2 11 -4 7 -19 -5 -13 -2 -25 6 -29 10 -7 10 -11 0 -24 -8 -9
-20 -16 -28 -16 -8 0 -11 -4 -8 -10 3 -5 -7 -12 -22 -16 -43 -10 -50 -18 -23
-25 l25 -6 -28 -12 c-16 -6 -47 -12 -68 -13 -23 -1 -35 -5 -27 -9 6 -4 16 -5
20 -3 4 3 15 1 24 -4 13 -7 6 -11 -27 -17 -35 -5 -40 -9 -24 -15 16 -6 12 -9
-22 -14 -35 -6 -45 -4 -62 13 -12 12 -26 21 -32 21 -6 0 -1 -9 12 -20 l24 -19
-25 -1 c-47 -3 -85 -11 -88 -21 -2 -5 -15 -9 -28 -9 -14 0 -27 -7 -31 -16 -5
-13 -15 -15 -50 -10 -25 3 -43 2 -43 -4 0 -6 -9 -10 -19 -10 -11 0 -23 -4 -26
-10 -3 -5 -19 -10 -36 -10 -16 0 -29 -5 -29 -11 0 -7 -18 -9 -52 -5 -29 3 -44
3 -33 0 39 -11 40 -24 1 -24 -22 0 -35 -4 -31 -10 4 -6 -5 -10 -20 -10 -24 0
-33 -5 -70 -37 -7 -7 -20 -13 -29 -13 -8 0 -18 -5 -22 -11 -4 -8 3 -9 25 -4
37 8 41 -2 5 -15 -14 -6 -23 -14 -20 -19 3 -5 -10 -18 -29 -30 -19 -11 -34
-26 -33 -33 2 -6 -6 -14 -17 -16 -11 -2 -25 -12 -32 -22 -7 -9 -26 -23 -42
-30 -17 -7 -44 -33 -61 -58 -16 -25 -30 -41 -30 -36 -1 11 -28 -57 -43 -108
-9 -31 -16 -38 -37 -39 -14 0 -19 -3 -12 -6 19 -7 14 -23 -10 -34 l-23 -10 23
5 c22 4 30 -8 12 -19 -6 -3 1 -17 15 -31 14 -14 23 -30 20 -35 -4 -5 6 -39 20
-76 22 -54 25 -71 16 -86 -8 -12 -9 -23 -3 -30 5 -7 12 -37 16 -67 4 -30 12
-60 17 -67 7 -8 7 -18 1 -30 -16 -29 -8 -79 16 -113 13 -17 26 -48 29 -68 4
-20 13 -43 20 -51 9 -9 12 -24 8 -43 -6 -27 -5 -29 14 -23 16 5 21 2 19 -12
-3 -39 2 -53 22 -53 11 0 20 -4 20 -10 0 -5 -5 -10 -12 -10 -8 0 -6 -7 5 -17
15 -16 19 -16 27 -3 15 24 24 3 12 -27 -6 -15 -13 -41 -14 -58 -2 -16 -7 -34
-13 -38 -6 -6 -6 -10 3 -14 19 -8 14 -26 -5 -19 -17 7 -17 6 -2 -9 11 -11 24
-15 38 -10 25 8 28 35 4 35 -14 0 -12 4 7 25 27 29 92 34 124 10 17 -13 18
-16 3 -38 -20 -31 -98 -70 -122 -61 -13 5 -16 4 -11 -4 5 -8 0 -12 -13 -12
-12 0 -21 6 -21 14 0 25 -30 27 -40 3 -14 -36 -70 -82 -137 -112 -50 -22 -60
-31 -52 -42 6 -7 26 -13 44 -13 19 0 35 -5 37 -12 3 -7 17 -13 33 -13 34 -2
58 -31 37 -44 -10 -6 -6 -10 15 -14 15 -3 30 -2 33 2 9 13 90 13 90 0 0 -7 3
-9 7 -6 3 4 12 -1 20 -11 12 -16 13 -16 7 0 -4 12 0 20 12 24 68 23 75 29 72
59 -2 24 -7 29 -23 27 -14 -3 -17 0 -10 7 7 7 22 8 44 1 28 -8 31 -7 21 5 -7
8 -16 12 -21 9 -5 -3 -9 -1 -9 3 0 14 40 44 50 38 5 -3 12 0 16 6 3 6 0 15 -7
20 -11 7 -10 9 5 9 20 0 20 0 0 15 -19 14 -19 14 1 15 20 1 20 1 1 15 -11 8
-15 15 -9 15 6 0 8 11 5 25 -2 14 -9 25 -14 25 -5 0 -2 7 7 16 13 14 14 19 3
25 -7 5 -8 9 -2 9 11 0 10 92 -1 110 -4 6 -3 16 1 22 5 7 9 41 11 76 3 83 32
149 64 148 16 -1 25 5 27 19 6 32 33 57 48 44 7 -6 15 -6 18 -1 3 5 17 7 31 4
28 -5 35 15 9 25 -10 4 -14 13 -10 29 4 16 -1 28 -19 42 -31 25 -31 32 0 32
18 0 25 5 25 20 0 11 -7 20 -15 20 -7 0 -19 8 -24 18 -10 16 -10 16 -11 0 0
-10 -5 -18 -11 -18 -5 0 -8 4 -4 9 3 5 1 12 -5 16 -5 3 -10 16 -10 27 0 20 1
21 20 3 11 -10 20 -14 20 -8 0 5 12 16 26 23 22 12 27 12 34 0 7 -12 12 -12
22 -2 16 16 38 16 38 0 0 -7 14 -14 30 -15 31 -2 41 13 15 23 -28 11 -15 20
25 16 22 -2 40 -8 40 -13 0 -16 21 -10 51 15 24 21 26 25 11 29 -9 2 3 4 28 3
25 -1 52 -6 59 -11 10 -6 12 -4 6 4 -5 10 4 11 39 6 32 -5 46 -4 46 4 0 9 6 8
23 0 35 -20 114 -22 121 -3 10 27 39 -11 32 -41 -6 -25 7 -35 19 -15 9 14 21
12 38 -4 8 -8 22 -14 33 -13 13 1 18 -4 16 -15 -1 -9 2 -19 8 -23 19 -12 10
-26 -12 -19 -20 6 -21 5 -9 -10 7 -9 23 -16 35 -17 11 0 17 -2 11 -5 -11 -4
-12 -80 -1 -91 12 -13 6 -42 -11 -45 -15 -3 -15 -4 -1 -19 9 -9 17 -33 19 -55
1 -21 6 -43 10 -49 4 -5 5 -23 2 -38 -4 -18 -8 -24 -13 -17 -6 9 -13 9 -26 1
-11 -6 -13 -11 -6 -11 6 0 12 -7 12 -16 0 -8 4 -13 9 -10 11 7 36 -22 27 -31
-4 -4 -11 -1 -16 7 -8 12 -10 10 -10 -7 0 -18 6 -23 28 -24 23 -2 24 -2 5 -6
-25 -5 -30 -22 -11 -41 8 -8 8 -15 -1 -26 -9 -10 -9 -16 -1 -21 8 -5 8 -10 0
-20 -6 -8 -10 -19 -9 -27 1 -7 1 -22 0 -33 -1 -16 -3 -17 -11 -5 -6 9 -5 17 3
22 9 6 9 8 -1 8 -20 0 -43 -62 -29 -79 10 -12 8 -13 -11 -9 -31 9 -53 -34 -42
-82 4 -19 8 -26 9 -15 1 27 17 7 26 -32 7 -34 -10 -48 -18 -15 -3 11 -5 7 -6
-10 0 -15 4 -30 10 -33 5 -4 8 -12 6 -18 -2 -7 0 -20 4 -29 12 -22 -11 -36
-23 -14 -5 9 -17 16 -26 15 -9 0 -12 -3 -5 -5 19 -8 38 -75 23 -84 -9 -5 -9
-9 -1 -14 7 -5 14 4 17 23 4 17 11 31 16 31 12 0 -1 -92 -15 -105 -7 -7 -8 -4
-4 8 4 9 2 17 -3 17 -6 0 -10 -9 -10 -20 0 -11 7 -20 15 -20 8 0 15 -5 15 -12
0 -19 -31 -48 -52 -48 -10 0 -18 -5 -18 -11 0 -7 10 -9 25 -7 19 4 25 1 25
-14 0 -15 -5 -17 -25 -12 -18 4 -25 2 -25 -8 0 -18 20 -44 40 -51 8 -3 0 -6
-17 -6 -32 -1 -33 -1 -32 -51 1 -27 6 -50 11 -50 6 0 8 7 4 15 -3 9 0 15 9 15
9 0 15 -10 15 -25 0 -14 -4 -25 -10 -25 -5 0 -8 -16 -6 -35 2 -31 0 -35 -21
-35 -36 0 -27 -20 10 -21 18 -1 24 -3 14 -6 -18 -5 -18 -5 0 -18 10 -8 14 -17
9 -22 -5 -4 -11 -2 -13 5 -8 20 -21 14 -37 -19 -16 -32 -13 -54 6 -43 5 4 4
-4 -4 -16 -41 -70 -45 -86 -11 -59 9 8 4 -3 -12 -23 -17 -21 -31 -33 -33 -28
-2 6 -8 10 -14 10 -5 0 -7 -9 -3 -19 3 -11 0 -23 -6 -27 -8 -5 -9 -3 -4 6 5 9
4 11 -4 6 -6 -4 -9 -12 -6 -17 3 -5 -19 -35 -49 -66 -31 -32 -56 -64 -56 -72
0 -7 -6 -11 -15 -7 -8 3 -14 2 -14 -2 3 -19 -3 -31 -28 -58 -41 -43 -65 -84
-59 -99 3 -8 1 -17 -4 -20 -6 -4 -10 3 -10 15 0 19 -2 19 -28 -7 -15 -16 -48
-43 -74 -61 -27 -18 -63 -48 -81 -67 -19 -19 -39 -35 -44 -35 -6 0 -14 -7 -17
-16 -3 -9 -12 -14 -19 -11 -15 5 -47 -10 -47 -23 0 -18 30 -10 31 8 0 14 2 14
9 -3 6 -15 3 -22 -15 -30 -12 -5 -20 -15 -18 -22 3 -7 -14 -31 -36 -53 -23
-23 -41 -46 -41 -51 0 -6 -8 -9 -17 -7 -15 3 -18 -5 -18 -49 1 -29 -3 -53 -7
-53 -12 0 -9 -88 3 -96 8 -4 8 -9 -1 -18 -8 -8 -13 -7 -19 2 -5 9 -8 2 -7 -18
1 -27 4 -30 23 -25 12 3 25 1 28 -5 6 -10 -7 -14 -32 -11 -7 1 -13 -4 -13 -12
0 -9 9 -13 24 -12 18 2 23 -1 19 -12 -5 -13 11 -32 28 -33 3 0 10 15 15 33 6
17 16 32 24 32 8 0 19 6 23 13 4 6 14 12 21 12 8 0 13 8 12 18 0 10 6 16 17
16 18 -2 24 21 7 31 -13 8 110 125 132 125 11 0 17 4 14 9 -7 10 -56 2 -56
-10 0 -5 -7 -9 -15 -9 -22 0 -18 14 8 25 13 6 21 17 19 28 -2 11 4 17 17 17
28 0 37 21 16 37 -17 12 -17 13 11 13 35 1 96 30 102 49 3 9 -1 11 -14 7 -15
-4 -19 0 -20 19 -2 27 20 35 30 10 3 -8 12 -15 21 -15 19 0 20 -16 0 -24 -8
-3 -15 -12 -15 -20 0 -9 -11 -18 -25 -22 -14 -3 -25 -10 -25 -15 0 -13 12 -11
34 6 11 8 23 15 28 15 15 0 8 -51 -7 -56 -10 -4 -14 -16 -13 -33 2 -19 -3 -29
-19 -36 -13 -5 -23 -13 -23 -17 0 -5 -7 -8 -15 -8 -8 0 -15 -4 -15 -9 0 -5 14
-4 30 2 17 6 30 15 30 19 0 4 5 8 10 8 15 0 12 -38 -2 -43 -7 -2 -3 -2 10 0
12 2 22 1 22 -3 0 -3 -10 -15 -22 -25 l-23 -20 23 6 c13 4 22 2 22 -4 0 -6 -4
-11 -9 -11 -14 0 -42 -50 -35 -62 4 -6 12 3 20 21 15 36 38 40 54 11 10 -19 9
-20 -13 -15 -14 4 -28 2 -31 -4 -4 -7 1 -11 12 -11 14 0 21 -9 25 -36 6 -35
-2 -59 -33 -98 -14 -18 -13 -19 20 -13 34 6 34 6 13 -10 -13 -8 -23 -20 -23
-26 0 -6 3 -8 6 -4 7 7 38 -24 47 -48 6 -15 3 -17 -23 -12 -29 6 -41 -5 -20
-18 6 -3 7 -17 4 -31 -4 -14 -2 -24 5 -24 6 0 11 5 11 10 0 6 5 10 11 10 6 0
9 -9 6 -20 -3 -11 -1 -20 4 -20 5 0 6 -13 3 -29 -4 -18 1 -42 14 -67 17 -33
18 -42 7 -59 -17 -26 -31 -77 -16 -55 8 12 11 7 11 -22 0 -20 6 -39 13 -41 7
-3 5 -6 -5 -6 -10 -1 -18 -6 -18 -12 0 -6 7 -9 15 -5 18 7 19 2 3 -24 -10 -16
-10 -24 0 -40 17 -27 16 -31 -14 -64 -22 -23 -24 -30 -13 -37 9 -6 18 -3 27 9
11 15 13 12 10 -23 -3 -44 -36 -84 -72 -86 -18 -1 -18 -2 4 -8 25 -8 25 -8
-13 -31 -21 -12 -36 -28 -34 -34 3 -7 -15 -25 -40 -41 -25 -16 -55 -38 -67
-49 -52 -49 -160 -131 -193 -145 -12 -6 -31 -19 -42 -30 -11 -11 -39 -26 -63
-33 -24 -7 -49 -18 -56 -25 -12 -12 -44 -17 -57 -10 -2 1 -11 -7 -19 -18 -9
-11 -16 -14 -16 -7 0 6 -11 12 -25 12 -14 0 -25 5 -25 10 0 6 -6 10 -13 10 -7
0 -30 9 -51 21 -21 11 -47 18 -58 16 -10 -3 -32 1 -48 10 -44 21 -88 25 -98 7
-5 -9 -15 -12 -26 -8 -14 5 -15 9 -4 15 10 7 10 9 -3 9 -8 0 -20 -5 -26 -11
-8 -8 -20 -7 -44 5 -18 9 -57 16 -91 16 -32 0 -58 4 -58 9 0 5 -10 9 -22 9
-13 0 -36 3 -53 8 -16 4 -42 8 -58 8 -18 1 -26 5 -22 14 5 13 -43 37 -53 27
-3 -3 -1 -5 4 -5 5 0 10 -9 11 -20 2 -25 -6 -25 -23 -2 -13 16 -13 16 -14 -2
0 -19 0 -19 -21 0 -22 20 -88 21 -101 1 -5 -8 -16 -8 -41 1 -19 7 -42 10 -51
6 -10 -4 -18 0 -22 10 -3 9 -12 16 -20 16 -7 0 -38 12 -68 27 -43 21 -57 33
-61 55 -8 32 -34 38 -42 8 -6 -24 -19 -25 -41 -3 -12 12 -13 18 -4 21 28 9 9
21 -28 16 -31 -4 -42 -1 -47 11 -3 9 -17 21 -30 26 -18 7 -23 14 -18 29 4 11
2 20 -4 20 -6 0 -11 -4 -11 -10 0 -5 -9 -10 -20 -10 -11 0 -20 7 -20 16 0 8
-4 13 -10 9 -5 -3 -7 -12 -4 -19 3 -8 1 -17 -5 -21 -7 -4 -11 4 -11 19 0 32
-20 35 -21 4 -1 -18 -3 -17 -8 6 -3 16 -11 31 -17 33 -17 6 -44 -25 -38 -42 9
-23 -14 -18 -26 6 -11 19 -12 20 -24 3 -15 -19 -32 -3 -20 19 5 7 1 7 -10 -2
-16 -13 -17 -12 -11 12 6 21 4 27 -9 27 -9 0 -21 9 -28 20 -7 11 -20 20 -28
21 -10 0 -11 2 -2 6 17 7 5 23 -19 23 -12 0 -19 7 -19 20 0 11 -4 20 -8 20 -8
0 -16 81 -13 120 1 8 2 30 1 49 0 19 5 38 10 41 6 4 11 24 10 46 -1 21 -1 48
-1 59 0 34 9 113 13 122 3 4 6 33 6 63 1 37 6 58 16 66 9 6 16 16 16 22 0 6 9
19 20 30 19 18 19 18 -1 19 -11 1 -23 -5 -26 -13 -5 -13 -7 -13 -14 -2 -15 22
-10 28 21 28 23 0 30 4 30 20 0 10 -9 24 -20 30 -20 11 -28 40 -11 40 10 0 6
228 -4 238 -3 3 -5 -12 -6 -34 0 -21 -2 -48 -5 -59 -2 -11 -7 -65 -10 -120 -4
-55 -9 -105 -13 -112 -13 -25 -85 -73 -110 -73 -24 1 -23 2 12 19 l37 17 0
627 0 627 -38 77 c-59 117 -107 271 -137 433 -15 80 -30 159 -35 175 -5 17
-11 58 -15 93 -7 65 -11 71 -49 78 -54 9 -97 37 -149 94 -80 89 -90 120 -146
455 -20 116 -54 339 -65 419 -7 52 11 119 40 151 25 27 44 32 44 13 0 -7 23
-24 51 -38 28 -14 66 -41 84 -62 l33 -36 7 111 c9 164 9 242 0 437 -6 149 -5
183 9 232 9 31 23 59 31 62 8 3 15 12 15 21 0 8 9 15 21 15 11 0 17 4 14 10
-4 6 -2 16 4 23 5 7 9 34 7 61 -2 40 1 50 16 54 23 6 24 22 1 22 -16 1 -16 2
-3 13 10 8 15 29 15 62 -1 50 13 95 28 95 5 0 6 9 2 20 -3 10 1 33 10 50 18
35 74 89 92 90 6 0 13 4 15 10 2 5 20 11 42 13 21 3 42 11 47 18 4 7 11 10 15
7 4 -4 16 -1 28 7 11 8 29 15 39 15 10 0 28 10 40 23 13 12 35 30 51 40 25 17
29 17 52 3 26 -18 46 -11 88 29 20 19 21 19 24 1 3 -15 6 -16 13 -5 8 12 11
12 19 -1 8 -13 10 -12 10 3 0 9 7 17 15 17 8 0 15 -6 15 -12 0 -7 7 -2 16 10
12 18 19 20 29 12 10 -8 16 -7 24 7 9 17 10 17 16 1 6 -14 10 -15 28 -5 12 7
26 17 30 22 5 6 5 0 2 -12 -8 -29 9 -30 28 -2 11 15 16 17 20 7 5 -10 9 -9 17
5 6 9 18 17 27 17 10 0 13 -5 8 -17 -3 -10 8 -3 24 16 l31 35 0 -33 c0 -33 0
-33 25 -17 16 10 25 12 25 5 0 -6 7 -9 15 -5 9 3 15 0 15 -10 0 -11 6 -14 23
-8 12 3 24 11 25 15 6 16 22 10 23 -8 0 -13 3 -11 11 7 6 14 10 28 10 33 -1 4
5 7 13 7 7 0 19 8 24 18 6 10 11 12 11 4 0 -7 5 -10 10 -7 6 4 8 10 5 15 -3 5
-1 11 5 15 5 3 10 0 10 -7 1 -7 7 1 15 17 11 26 13 27 14 8 1 -12 4 -29 7 -38
5 -13 9 -14 15 -3 8 11 11 11 18 -1 7 -11 10 -9 16 9 5 17 9 19 15 9 5 -7 6
-17 4 -21 -3 -4 0 -8 5 -8 6 0 11 10 12 23 0 20 1 20 8 3 7 -18 9 -17 21 11 8
18 18 29 22 27 4 -3 8 1 8 8 0 9 3 9 10 -2 8 -12 10 -10 11 10 1 23 2 22 8 -5
4 -21 12 -30 26 -30z m-388 -97 c-3 -8 -6 -5 -6 6 -1 11 2 17 5 13 3 -3 4 -12
1 -19z m-1827 -118 c0 -5 -4 -10 -10 -10 -5 0 -10 5 -10 10 0 6 5 10 10 10 6
0 10 -4 10 -10z m310 -20 c0 -5 -4 -10 -9 -10 -6 0 -13 5 -16 10 -3 6 1 10 9
10 9 0 16 -4 16 -10z m45 0 c-3 -5 -10 -10 -16 -10 -5 0 -9 5 -9 10 0 6 7 10
16 10 8 0 12 -4 9 -10z m-360 -62 c149 -65 173 -78 178 -98 4 -15 14 -19 48
-19 60 1 216 -69 234 -104 11 -21 11 -29 -1 -44 -7 -10 -13 -22 -14 -28 0 -5
5 -3 10 5 5 8 10 13 10 10 1 -3 3 -39 5 -81 3 -42 10 -89 16 -105 6 -16 11
-51 10 -79 0 -34 3 -45 9 -35 8 13 10 12 10 -2 0 -20 -16 -32 -24 -19 -4 5
-22 5 -44 0 -22 -5 -129 -15 -238 -24 -256 -20 -327 -26 -335 -31 -16 -9 -17
42 -12 365 6 341 6 341 27 335 12 -4 62 -24 111 -46z m288 35 c3 -5 -6 -9 -20
-10 -19 -1 -22 1 -12 8 17 11 26 11 32 2z m102 -3 c-11 -5 -15 -9 -10 -9 6 -1
3 -6 -5 -11 -13 -9 -13 -11 0 -19 11 -8 9 -12 -14 -21 -23 -9 -26 -13 -16 -25
10 -12 10 -15 -3 -15 -15 0 -30 37 -21 52 3 4 12 8 20 8 8 0 14 8 14 18 0 24
9 32 34 31 21 0 21 -1 1 -9z m-4 -107 c-12 -20 -14 -14 -5 12 4 9 9 14 11 11
3 -2 0 -13 -6 -23z m3264 -54 c-5 -15 -4 -19 4 -15 6 4 11 2 11 -3 0 -6 -7
-11 -15 -11 -16 0 -19 9 -9 34 9 24 16 19 9 -5z m-3215 -1 c0 -4 -4 -8 -9 -8
-6 0 -12 4 -15 8 -3 5 1 9 9 9 8 0 15 -4 15 -9z m3260 -138 c0 -11 -4 -20 -10
-20 -5 0 -10 9 -10 20 0 11 5 20 10 20 6 0 10 -9 10 -20z m-3883 -42 c-3 -8
-6 -5 -6 6 -1 11 2 17 5 13 3 -3 4 -12 1 -19z m3863 -13 c0 -8 -4 -15 -9 -15
-13 0 -22 16 -14 24 11 11 23 6 23 -9z m-225 -551 l-30 -15 30 6 c79 15 137
17 130 4 -6 -9 1 -11 29 -6 l38 6 -22 -19 -22 -19 26 -7 c14 -3 40 -1 57 5 18
6 35 9 37 6 3 -3 -1 -5 -9 -5 -10 -1 -9 -4 4 -11 10 -6 24 -8 32 -5 8 3 12 0
9 -7 -11 -29 -142 -64 -174 -47 -16 9 -21 8 -26 -4 -3 -8 -20 -18 -37 -22 -18
-3 -38 -11 -45 -17 -8 -6 -83 -12 -180 -14 -122 -3 -163 -1 -152 7 11 8 1 9
-40 5 -55 -6 -55 -6 -25 10 17 8 22 13 13 10 -10 -2 -25 -2 -33 1 -25 10 25
42 84 55 28 6 72 19 98 29 87 32 90 33 73 21 -8 -6 -10 -11 -4 -11 5 0 14 4
20 9 10 10 122 50 139 49 6 0 -3 -6 -20 -14z m202 -40 c-3 -3 -12 -4 -19 -1
-8 3 -5 6 6 6 11 1 17 -2 13 -5z m33 -98 c0 -3 -4 -8 -10 -11 -5 -3 -10 -1
-10 4 0 6 5 11 10 11 6 0 10 -2 10 -4z m-402 -97 c16 0 21 -3 12 -6 -8 -4 -20
-13 -26 -22 -10 -13 -13 -13 -29 3 -13 12 -26 15 -49 11 -26 -5 -28 -4 -13 6
11 6 30 9 43 6 17 -3 24 0 25 12 0 10 2 12 6 4 2 -7 17 -13 31 -14z m68 -15
c-4 -9 -9 -15 -11 -12 -3 3 -3 13 1 22 4 9 9 15 11 12 3 -3 3 -13 -1 -22z
m-227 -105 c-8 -5 -9 -9 -3 -9 7 0 15 -17 19 -37 3 -21 20 -55 36 -75 35 -44
28 -47 -55 -23 -57 17 -78 41 -73 85 5 37 15 50 34 43 12 -5 15 -2 11 8 -4 10
2 14 20 16 18 1 21 -1 11 -8z m401 -29 c0 -5 -7 -10 -15 -10 -8 0 -15 -4 -15
-9 0 -5 -3 -16 -6 -25 -4 -11 0 -16 12 -16 13 0 4 -10 -26 -30 -24 -16 -46
-28 -48 -26 -1 2 8 21 23 41 14 21 25 46 25 57 0 11 4 17 9 13 5 -3 12 -1 16
5 8 13 25 13 25 0z m-490 -20 c0 -5 -7 -7 -15 -4 -8 4 -15 8 -15 10 0 2 7 4
15 4 8 0 15 -4 15 -10z m1280 -31 c0 -5 -4 -9 -10 -9 -5 0 -10 7 -10 16 0 8 5
12 10 9 6 -3 10 -10 10 -16z m-4558 -8 c15 -18 15 -19 -8 -24 -20 -3 -24 0
-24 19 0 29 10 30 32 5z m3563 9 c4 -6 -1 -7 -11 -3 -12 4 -15 3 -10 -5 4 -7
1 -12 -8 -12 -10 0 -13 6 -10 15 7 17 30 20 39 5z m1061 -57 c-7 -81 -15 -113
-27 -113 -12 0 -1 114 11 118 7 3 7 9 -1 18 -13 16 -5 44 12 44 9 0 10 -19 5
-67z m-66 17 c0 -4 -7 -10 -15 -14 -10 -4 -15 1 -15 14 0 13 5 18 15 14 8 -4
15 -10 15 -14z m-4580 -26 c0 -8 -4 -12 -10 -9 -5 3 -10 10 -10 16 0 5 5 9 10
9 6 0 10 -7 10 -16z m4465 -37 c-8 -20 -15 -45 -15 -56 0 -11 -4 -23 -10 -26
-14 -9 -2 53 18 92 21 43 26 36 7 -10z m105 -1 c0 -33 -13 -55 -23 -39 -7 13
4 73 14 73 5 0 9 -15 9 -34z m-4560 0 c0 -3 -4 -8 -10 -11 -5 -3 -10 -1 -10 4
0 6 5 11 10 11 6 0 10 -2 10 -4z m-42 -29 c2 -12 -3 -17 -17 -17 -12 0 -21 6
-21 13 0 31 32 34 38 4z m3532 -39 c0 -4 -10 -8 -22 -8 -16 0 -19 3 -11 11 6
6 9 19 6 28 -3 12 -1 11 11 -3 9 -11 16 -23 16 -28z m47 7 c-6 -15 25 -16 36
-1 6 7 7 6 4 -4 -2 -8 -13 -16 -25 -18 -12 -2 -22 -8 -22 -13 0 -5 -4 -9 -9
-9 -11 0 -24 48 -16 60 8 13 37 0 32 -15z m167 0 c14 -4 16 -9 8 -17 -8 -8
-15 -8 -27 2 -8 7 -15 9 -15 4 0 -11 -20 18 -20 29 0 4 8 3 18 -2 9 -5 26 -12
36 -16z m-3706 -30 c3 -24 1 -28 -9 -17 -7 6 -31 13 -53 14 l-41 1 45 7 c25 4
39 8 33 8 -7 1 -13 7 -13 13 0 6 8 9 18 7 11 -2 18 -14 20 -33z m3622 15 c0
-5 -8 -10 -17 -10 -15 0 -16 2 -3 10 19 12 20 12 20 0z m-3583 -62 c-2 -13 -4
-3 -4 22 0 25 2 35 4 23 2 -13 2 -33 0 -45z m4033 58 c0 -3 -4 -8 -10 -11 -5
-3 -10 -1 -10 4 0 6 5 11 10 11 6 0 10 -2 10 -4z m-497 -23 c-7 -2 -19 -2 -25
0 -7 3 -2 5 12 5 14 0 19 -2 13 -5z m-3594 -18 c-3 -2 -21 -5 -42 -7 -51 -3
-47 -18 6 -20 l42 -1 -37 -4 c-44 -5 -89 14 -67 28 14 9 106 13 98 4z m3959
-24 c3 -8 -1 -12 -9 -9 -7 2 -15 10 -17 17 -3 8 1 12 9 9 7 -2 15 -10 17 -17z
m555 -50 c26 -49 28 -62 28 -154 0 -55 -3 -102 -5 -105 -14 -13 -36 11 -36 38
0 18 -4 29 -10 25 -6 -3 -15 6 -21 22 -6 16 -13 22 -16 16 -8 -22 -24 -14 -21
10 1 12 -2 39 -6 59 -11 49 19 150 43 146 9 -2 28 -27 44 -57z m102 -59 c-3
-9 -9 -12 -15 -6 -5 5 -4 32 3 64 l12 55 3 -49 c2 -27 1 -55 -3 -64z m-485 74
c0 -3 -4 -8 -10 -11 -5 -3 -10 -1 -10 4 0 6 5 11 10 11 6 0 10 -2 10 -4z
m-4163 -62 c-3 -3 -12 -4 -19 -1 -8 3 -5 6 6 6 11 1 17 -2 13 -5z m-2 -44 c3
-5 -3 -10 -15 -10 -12 0 -18 5 -15 10 3 6 10 10 15 10 5 0 12 -4 15 -10z m13
-128 c5 -31 -15 -27 -21 3 -3 16 0 24 7 22 6 -2 12 -13 14 -25z m-98 -11 c0
-17 -4 -33 -10 -36 -5 -3 -10 0 -10 7 0 7 -3 23 -6 36 -5 16 -2 22 10 22 11 0
16 -9 16 -29z m54 -18 c-8 -57 -6 -54 -23 -44 -10 7 -10 16 0 50 17 56 32 52
23 -6z m4535 -152 c10 -6 11 -17 6 -37 -4 -16 -11 -62 -14 -103 -4 -50 -10
-76 -20 -79 -8 -3 -11 0 -7 7 4 6 1 11 -6 11 -10 0 -9 3 2 10 12 7 12 12 -4
29 -10 11 -23 19 -30 18 -6 -1 -10 9 -10 23 1 14 2 35 3 48 0 13 6 20 11 17 6
-3 10 0 10 7 0 16 28 58 38 58 4 0 13 -4 21 -9z m-4433 -47 c-19 -18 -21 -11
-4 19 7 14 13 17 15 10 3 -7 -3 -20 -11 -29z m-218 9 c-10 -2 -26 -2 -35 0
-10 3 -2 5 17 5 19 0 27 -2 18 -5z m-88 -203 c0 -22 -4 -40 -10 -40 -5 0 -10
18 -10 40 0 22 5 40 10 40 6 0 10 -18 10 -40z m4659 -12 c-9 -17 -5 -22 14
-19 14 2 6 -8 -23 -29 l-31 -22 6 29 c13 54 15 60 30 60 10 0 11 -5 4 -19z
m-4382 -20 c-3 -8 -6 -5 -6 6 -1 11 2 17 5 13 3 -3 4 -12 1 -19z m-305 -53 c2
-31 -1 -45 -9 -45 -9 0 -13 16 -13 45 0 25 4 45 9 45 5 0 11 -20 13 -45z m225
-7 c-3 -7 -5 -2 -5 12 0 14 2 19 5 13 2 -7 2 -19 0 -25z m-167 -58 c0 -5 -7
-10 -15 -10 -8 0 -15 5 -15 10 0 6 7 10 15 10 8 0 15 -4 15 -10z m4370 -32 c0
-10 -6 -18 -13 -18 -9 0 -12 10 -9 31 3 22 7 27 13 18 5 -8 9 -22 9 -31z
m-4394 -3 l29 -15 -42 0 c-32 0 -43 4 -43 15 0 19 20 19 56 0z m-196 -24 c0
-6 -4 -13 -10 -16 -5 -3 -10 1 -10 9 0 9 5 16 10 16 6 0 10 -4 10 -9z m38 -59
c2 -7 -6 -12 -17 -12 -21 0 -27 11 -14 24 9 9 26 2 31 -12z m85 -19 c-13 -2
-33 -2 -45 0 -13 2 -3 4 22 4 25 0 35 -2 23 -4z m123 -20 c-2 -3 -17 -6 -33
-8 -15 -1 -56 -6 -90 -10 -40 -5 -63 -4 -63 2 0 5 35 14 78 19 72 9 119 7 108
-3z m3314 -33 c0 -11 -4 -20 -9 -20 -5 0 -11 9 -14 20 -3 13 0 20 9 20 8 0 14
-9 14 -20z m-3380 -10 c10 -7 -7 -9 -55 -8 -65 1 -67 1 -25 8 25 4 50 8 55 8
6 1 17 -3 25 -8z m67 -6 c-3 -3 -12 -4 -19 -1 -8 3 -5 6 6 6 11 1 17 -2 13 -5z
m-222 -94 c-3 -5 -15 -10 -26 -10 -10 0 -19 5 -19 10 0 6 12 10 26 10 14 0 23
-4 19 -10z m83 3 c-10 -2 -26 -2 -35 0 -10 3 -2 5 17 5 19 0 27 -2 18 -5z
m-84 -62 c3 -5 -1 -12 -10 -15 -25 -10 -34 -7 -34 9 0 16 35 21 44 6z m94 2
c-10 -2 -28 -2 -40 0 -13 2 -5 4 17 4 22 1 32 -1 23 -4z m-111 -59 c-3 -3 -12
-4 -19 -1 -8 3 -5 6 6 6 11 1 17 -2 13 -5z m53 -14 c0 -13 -11 -13 -30 0 -12
8 -11 10 8 10 12 0 22 -4 22 -10z m-180 -90 c0 -5 -9 -10 -20 -10 -11 0 -20 5
-20 10 0 6 9 10 20 10 11 0 20 -4 20 -10z m-63 -176 c-3 -3 -12 -4 -19 -1 -8
3 -5 6 6 6 11 1 17 -2 13 -5z m4733 -35 c0 -6 -4 -7 -10 -4 -5 3 -10 11 -10
16 0 6 5 7 10 4 6 -3 10 -11 10 -16z m-4747 -53 c6 -16 -2 -28 -14 -20 -12 7
-11 34 0 34 5 0 11 -6 14 -14z m12 -56 c3 -5 -1 -10 -10 -10 -9 0 -13 5 -10
10 3 6 8 10 10 10 2 0 7 -4 10 -10z m58 -17 c-7 -2 -19 -2 -25 0 -7 3 -2 5 12
5 14 0 19 -2 13 -5z m-33 -17 c0 -3 -4 -8 -10 -11 -5 -3 -10 -1 -10 4 0 6 5
11 10 11 6 0 10 -2 10 -4z m-44 -33 c-10 -10 -19 5 -10 18 6 11 8 11 12 0 2
-7 1 -15 -2 -18z m36 -50 c-7 -65 -12 -67 -12 -5 0 29 4 52 9 52 5 0 6 -21 3
-47z m-92 -173 c0 -11 -4 -20 -10 -20 -5 0 -10 9 -10 20 0 11 5 20 10 20 6 0
10 -9 10 -20z m-80 -380 c0 -5 -5 -10 -11 -10 -5 0 -7 5 -4 10 3 6 8 10 11 10
2 0 4 -4 4 -10z m-15 -57 c18 -14 18 -15 2 -9 -10 3 -28 6 -38 6 -11 0 -17 5
-14 10 9 14 27 12 50 -7z m4435 -24 c0 -14 -17 -10 -23 5 -4 10 -1 13 9 9 7
-3 14 -9 14 -14z m0 -38 c0 -6 -4 -13 -10 -16 -5 -3 -10 1 -10 9 0 9 5 16 10
16 6 0 10 -4 10 -9z m-4420 -41 c0 -5 -7 -10 -15 -10 -8 0 -15 5 -15 10 0 6 7
10 15 10 8 0 15 -4 15 -10z m4150 -20 c0 -5 -4 -10 -10 -10 -5 0 -10 5 -10 10
0 6 5 10 10 10 6 0 10 -4 10 -10z m170 -40 c0 -5 -10 -10 -22 -10 -19 0 -20 2
-8 10 19 13 30 13 30 0z m-4444 -74 c8 -8 14 -31 14 -50 0 -51 27 -49 33 2 4
35 4 34 3 -5 -1 -24 3 -45 9 -47 5 -2 6 -7 2 -12 -4 -5 -11 -3 -15 3 -4 6 -20
15 -35 18 -24 6 -27 12 -27 46 0 21 -4 39 -10 39 -5 0 -10 5 -10 10 0 15 19
12 36 -4z m-6 -116 c0 -5 -7 -10 -15 -10 -8 0 -15 5 -15 10 0 6 7 10 15 10 8
0 15 -4 15 -10z m50 -20 c0 -5 -7 -10 -15 -10 -8 0 -15 5 -15 10 0 6 7 10 15
10 8 0 15 -4 15 -10z m4244 -15 c-4 -8 -11 -15 -16 -15 -6 0 -5 6 2 15 7 8 14
15 16 15 2 0 1 -7 -2 -15z m-4297 -11 c-3 -3 -12 -4 -19 -1 -8 3 -5 6 6 6 11
1 17 -2 13 -5z m-57 -124 c0 -22 -4 -40 -10 -40 -5 0 -10 18 -10 40 0 22 5 40
10 40 6 0 10 -18 10 -40z m41 10 c5 0 9 -4 9 -10 0 -5 -7 -10 -15 -10 -10 0
-15 9 -14 28 1 16 3 20 6 10 2 -10 9 -18 14 -18z m2176 -36 c-3 -3 -12 -4 -19
-1 -8 3 -5 6 6 6 11 1 17 -2 13 -5z m-1217 -49 c0 -25 -4 -45 -10 -45 -5 0
-10 20 -10 45 0 25 5 45 10 45 6 0 10 -20 10 -45z m-1050 5 c0 -5 -7 -10 -16
-10 -8 0 -12 5 -9 10 3 6 10 10 16 10 5 0 9 -4 9 -10z m60 -65 c0 -8 -2 -15
-4 -15 -2 0 -6 7 -10 15 -3 8 -1 15 4 15 6 0 10 -7 10 -15z m4750 11 c0 -3 -4
-8 -10 -11 -5 -3 -10 -1 -10 4 0 6 5 11 10 11 6 0 10 -2 10 -4z m5 -95 c3 -5
1 -12 -5 -16 -5 -3 -10 1 -10 9 0 18 6 21 15 7z m-4940 -51 c3 -5 -3 -10 -14
-10 -12 0 -21 5 -21 10 0 6 6 10 14 10 8 0 18 -4 21 -10z m-10 -30 c3 -5 -1
-10 -9 -10 -9 0 -16 5 -16 10 0 6 4 10 9 10 6 0 13 -4 16 -10z m20 -40 c3 -5
-3 -10 -14 -10 -11 0 -23 5 -26 10 -3 6 3 10 14 10 11 0 23 -4 26 -10z m4960
-20 c-3 -5 -14 -10 -23 -10 -15 0 -15 2 -2 10 20 13 33 13 25 0z m-5100 -40
c0 -7 -6 -15 -12 -17 -8 -3 -13 4 -13 17 0 13 5 20 13 18 6 -3 12 -11 12 -18z
m75 10 c21 -7 19 -8 -17 -9 -24 -1 -43 4 -43 9 0 12 24 12 60 0z m3 -37 c-13
-2 -33 -2 -45 0 -13 2 -3 4 22 4 25 0 35 -2 23 -4z m3 -35 c-6 -10 -18 -18
-26 -18 -8 0 -20 8 -26 18 -10 16 -7 17 26 17 33 0 36 -1 26 -17z m-101 -167
c3 -5 1 -12 -5 -16 -5 -3 -10 1 -10 9 0 18 6 21 15 7z m-25 -41 c0 -5 -4 -10
-10 -10 -5 0 -10 5 -10 10 0 6 5 10 10 10 6 0 10 -4 10 -10z m100 -14 c0 -3
-4 -8 -10 -11 -5 -3 -10 -1 -10 4 0 6 5 11 10 11 6 0 10 -2 10 -4z m-100 -36
c0 -5 -4 -10 -10 -10 -5 0 -10 5 -10 10 0 6 5 10 10 10 6 0 10 -4 10 -10z
m-40 -74 c0 -11 -19 -15 -25 -6 -3 5 1 10 9 10 9 0 16 -2 16 -4z m3000 -36 c0
-5 -5 -10 -11 -10 -5 0 -7 5 -4 10 3 6 8 10 11 10 2 0 4 -4 4 -10z m-2995 -10
c-28 -12 -37 -12 -30 0 3 6 16 10 28 9 21 0 21 -1 2 -9z m-95 -176 c0 -2 -9
-4 -21 -4 -11 0 -18 4 -14 10 5 8 35 3 35 -6z m37 0 c-3 -3 -12 -4 -19 -1 -8
3 -5 6 6 6 11 1 17 -2 13 -5z m-137 -49 c0 -2 -7 -5 -15 -9 -9 -3 -15 0 -15 9
0 9 6 12 15 9 8 -4 15 -7 15 -9z m4420 -45 c0 -5 -4 -10 -10 -10 -5 0 -10 5
-10 10 0 6 5 10 10 10 6 0 10 -4 10 -10z"/>
<path d="M6188 7253 c7 -3 16 -2 19 1 4 3 -2 6 -13 5 -11 0 -14 -3 -6 -6z"/>
<path d="M3609 7035 c-44 -33 -121 -100 -168 -146 -41 -41 -61 -72 -61 -94 0
-9 -4 -14 -9 -11 -5 3 -8 -9 -7 -27 1 -17 -1 -49 -5 -69 -7 -43 1 -61 24 -52
18 7 23 24 7 24 -5 0 -10 -5 -10 -11 0 -5 -5 -7 -10 -4 -20 12 10 47 35 42 14
-2 26 1 29 9 3 7 14 10 25 7 22 -6 29 12 9 20 -7 3 3 4 22 1 19 -2 29 -2 23 2
-7 3 -13 12 -13 20 0 8 6 14 13 13 6 -1 26 4 42 11 17 7 46 12 65 12 28 0 31
1 15 8 -11 4 -29 7 -40 6 -11 -2 -14 -1 -7 1 7 3 9 9 5 15 -4 8 0 9 13 3 30
-12 154 -17 129 -5 -16 8 -13 9 15 4 19 -3 47 -5 63 -5 15 0 27 -5 27 -11 0
-10 12 -9 55 7 15 5 16 4 6 -3 -11 -8 -10 -12 7 -21 28 -15 32 -14 32 7 1 9 9
0 18 -20 14 -30 20 -34 27 -22 13 19 175 33 175 15 0 -6 12 -11 26 -11 14 0
35 -5 46 -11 15 -8 22 -8 28 1 5 8 19 10 41 6 58 -11 238 -8 206 3 -10 4 -18
11 -17 16 1 6 -9 13 -22 17 -13 5 -2 6 27 3 47 -4 49 -4 25 10 -14 8 -33 14
-43 15 -11 0 -17 6 -14 13 2 6 -5 18 -17 25 -14 9 -16 12 -3 8 19 -6 24 10 5
17 -10 4 -10 6 0 6 7 1 24 -6 37 -15 28 -19 34 -8 8 12 -15 12 -16 13 -2 8 10
-3 20 -1 23 4 3 5 -5 8 -17 7 -12 -1 -44 4 -70 12 -51 15 -57 30 -18 49 20 11
17 12 -36 18 -32 3 -80 4 -107 2 -30 -2 -43 -1 -35 5 8 5 32 9 54 9 22 0 46 4
53 9 24 15 -124 2 -163 -15 -36 -15 -63 -11 -37 5 10 6 10 11 -3 21 -12 10
-15 10 -15 -3 0 -15 -28 -32 -38 -22 -3 3 0 5 6 5 7 0 12 5 12 10 0 7 -6 7
-18 1 -9 -5 -28 -9 -42 -8 -14 0 -29 -1 -35 -2 -5 -2 -21 -3 -35 -2 -20 1 -22
3 -10 11 12 8 9 10 -12 10 -16 0 -28 -5 -28 -12 0 -6 -3 -8 -7 -4 -5 4 1 14
12 22 18 13 17 14 -13 9 -18 -3 -45 -7 -62 -10 -44 -7 -90 4 -83 20 4 11 -7
12 -51 8 -39 -4 -56 -2 -56 6 0 17 -13 13 -51 -14z m461 -59 c0 -2 -7 -7 -16
-10 -8 -3 -12 -2 -9 4 6 10 25 14 25 6z m292 -18 c-7 -7 -16 -7 -28 0 -14 8
-13 10 10 10 18 0 24 -4 18 -10z m-660 -140 c-9 -9 -15 -9 -24 0 -9 9 -7 12
12 12 19 0 21 -3 12 -12z m325 -34 c-3 -3 -12 -4 -19 -1 -8 3 -5 6 6 6 11 1
17 -2 13 -5z"/>
<path d="M4054 7015 c-10 -8 -14 -15 -8 -15 6 0 17 7 24 15 16 19 9 19 -16 0z"/>
<path d="M3996 7011 c-11 -4 -15 -10 -10 -13 5 -4 18 0 29 8 20 15 12 17 -19
5z"/>
<path d="M3430 6970 c0 -5 -10 -10 -22 -11 l-23 0 23 -10 c17 -6 27 -5 38 5
18 19 18 26 -1 26 -8 0 -15 -4 -15 -10z"/>
<path d="M4452 6930 c7 -11 17 -20 22 -20 5 0 1 9 -9 20 -10 11 -20 20 -22 20
-2 0 2 -9 9 -20z"/>
<path d="M5440 6940 c0 -5 5 -10 11 -10 5 0 7 5 4 10 -3 6 -8 10 -11 10 -2 0
-4 -4 -4 -10z"/>
<path d="M3400 6910 c0 -13 5 -20 13 -17 6 2 12 10 12 17 0 7 -6 15 -12 18 -8
2 -13 -5 -13 -18z"/>
<path d="M4473 6835 c0 -8 7 -15 14 -15 8 0 27 -7 43 -15 17 -9 30 -11 30 -6
0 7 -72 51 -84 51 -1 0 -3 -7 -3 -15z"/>
<path d="M4180 6649 c-30 -4 -124 -10 -208 -13 -84 -4 -167 -9 -185 -12 -26
-3 -28 -2 -12 5 17 8 14 10 -17 10 -21 1 -53 -8 -72 -18 -30 -17 -35 -18 -40
-5 -8 22 -28 6 -21 -17 4 -10 2 -19 -4 -19 -5 0 -12 10 -14 23 -3 16 -5 13 -6
-10 0 -18 -10 -42 -22 -54 -11 -11 -19 -30 -18 -42 1 -12 -3 -35 -9 -50 -7
-16 -12 -36 -12 -46 0 -9 -5 -22 -11 -28 -7 -7 -8 -17 -3 -25 9 -13 10 -18 13
-39 0 -6 17 -10 39 -8 81 4 92 1 98 -30 4 -19 14 -31 28 -34 11 -3 31 -9 44
-12 17 -6 22 -3 22 9 0 10 4 14 10 11 5 -3 7 0 5 8 -3 7 3 21 13 31 18 16 20
16 26 0 3 -9 1 -23 -5 -30 -7 -9 -8 -14 -1 -14 12 0 26 30 23 49 -1 8 6 5 20
-7 13 -13 19 -27 15 -37 -3 -9 -2 -13 4 -10 6 3 10 12 10 19 0 16 28 41 37 33
3 -4 0 -27 -7 -52 -11 -39 -16 -45 -39 -45 -21 -1 -23 -3 -10 -10 25 -14 61
-1 54 20 -4 11 4 29 20 46 14 15 25 22 25 17 0 -6 -7 -16 -15 -23 -19 -15 -20
-56 -2 -63 22 -8 103 2 212 27 l30 7 -31 -15 c-62 -28 -52 -35 52 -38 37 -2
50 -6 47 -15 -5 -14 40 -29 56 -18 6 3 8 0 5 -8 -3 -8 2 -17 11 -21 9 -3 13
-11 9 -18 -5 -8 -2 -9 12 -4 40 17 56 18 64 7 5 -10 11 -9 22 2 12 12 17 13
33 1 10 -8 15 -14 9 -14 -5 0 6 -14 25 -30 40 -35 47 -37 61 -10 15 29 33 25
26 -5 -4 -14 -3 -25 1 -25 10 0 33 49 33 69 0 12 2 13 8 4 6 -9 13 -4 26 17
10 18 25 30 38 30 17 0 18 2 8 15 -9 10 -9 15 -1 15 6 0 11 8 11 18 0 14 2 15
10 2 14 -22 22 -6 11 24 -8 20 -7 26 3 26 8 0 17 -10 20 -22 6 -21 7 -22 17
-5 8 13 7 22 -1 32 -6 8 -7 14 -1 17 22 8 13 128 -10 128 -12 0 -12 47 1 55 6
4 8 10 5 15 -3 5 3 13 12 19 10 6 13 11 6 11 -6 0 -19 -7 -28 -16 -15 -16 -19
-14 -56 27 -21 24 -39 48 -39 55 0 14 -56 57 -78 60 -9 1 -32 8 -50 15 -27 11
-36 11 -53 1 -12 -8 -18 -9 -14 -3 3 7 -2 11 -14 11 -12 0 -21 5 -21 10 0 6
-15 10 -33 10 -18 0 -38 5 -45 12 -8 8 -15 8 -26 -1 -10 -9 -20 -9 -33 -3 -19
11 -36 11 -123 1z m-160 -46 c-8 -3 -17 -10 -20 -14 -3 -5 -17 -5 -30 -2 -25
7 -25 7 5 14 17 4 37 7 45 7 13 0 13 0 0 -5z m283 -154 c4 -3 1 -22 -8 -41
-12 -30 -23 -39 -65 -53 -28 -9 -53 -15 -56 -12 -3 2 6 22 21 42 15 23 25 52
25 73 0 30 2 33 15 22 13 -11 14 -10 9 6 -6 16 -3 15 22 -6 16 -14 32 -27 37
-31z m-420 -5 c3 -31 15 -58 37 -85 18 -22 30 -43 27 -45 -6 -7 -95 38 -125
62 -24 21 -42 84 -24 84 6 0 9 -8 6 -17 -3 -10 1 -7 9 6 13 22 36 38 58 40 4
1 9 -20 12 -45z m603 18 c40 -29 72 -62 60 -62 -15 0 -125 78 -119 84 10 10
18 7 59 -22z m43 19 c7 -5 12 -13 10 -18 -2 -6 -13 -2 -23 8 -20 19 -12 26 13
10z m-139 -73 c0 -13 -23 -5 -28 10 -2 7 2 10 12 6 9 -3 16 -11 16 -16z m-301
-13 c-11 -9 -42 -8 -46 2 -5 13 40 23 46 10 1 -5 1 -10 0 -12z m521 6 c0 -23
-16 -36 -25 -21 -9 14 1 40 15 40 5 0 10 -9 10 -19z m-832 -121 c-7 -10 -14
-17 -17 -15 -4 4 18 35 25 35 2 0 -1 -9 -8 -20z m301 -37 c1 5 5 5 11 2 6 -4
5 -11 -3 -19 -10 -12 -13 -11 -19 3 -4 9 -6 25 -6 36 0 16 2 15 8 -5 4 -14 8
-21 9 -17z m-79 -29 c0 -16 -6 -21 -25 -21 -29 0 -32 14 -8 44 19 24 33 14 33
-23z m55 10 c0 -10 -8 -20 -17 -22 -18 -3 -26 27 -11 42 12 11 28 0 28 -20z
m311 -119 c9 -8 11 -15 6 -15 -5 0 -15 7 -22 15 -7 8 -9 15 -6 15 4 0 14 -7
22 -15z"/>
<path d="M3050 6385 c0 -8 5 -15 10 -15 6 0 10 7 10 15 0 8 -4 15 -10 15 -5 0
-10 -7 -10 -15z"/>
<path d="M3051 6333 c0 -4 4 -17 9 -28 8 -19 9 -19 9 2 1 12 -3 25 -9 28 -5 3
-10 3 -9 -2z"/>
<path d="M3065 6183 c3 -32 14 -95 24 -139 l18 -79 7 71 c7 62 5 79 -13 119
-12 26 -21 53 -21 61 0 7 -5 16 -11 20 -8 5 -9 -10 -4 -53z"/>
<path d="M6097 6123 c8 -52 13 -54 13 -5 0 23 -4 42 -9 42 -6 0 -7 -17 -4 -37z"/>
<path d="M6231 6121 c-8 -6 -9 -11 -3 -15 6 -3 14 -1 17 5 9 14 2 20 -14 10z"/>
<path d="M6160 6090 c0 -5 7 -10 16 -10 8 0 12 5 9 10 -3 6 -10 10 -16 10 -5
0 -9 -4 -9 -10z"/>
<path d="M6241 6074 c0 -11 3 -14 6 -6 3 7 2 16 -1 19 -3 4 -6 -2 -5 -13z"/>
<path d="M5710 6070 c0 -5 5 -10 11 -10 5 0 7 5 4 10 -3 6 -8 10 -11 10 -2 0
-4 -4 -4 -10z"/>
<path d="M6285 6060 c-3 -5 -2 -10 4 -10 5 0 13 5 16 10 3 6 2 10 -4 10 -5 0
-13 -4 -16 -10z"/>
<path d="M4720 5981 c-13 -25 -13 -48 0 -56 5 -3 7 0 4 9 -3 8 2 26 11 40 10
15 13 26 7 26 -6 0 -16 -9 -22 -19z"/>
<path d="M4568 5983 c7 -3 16 -2 19 1 4 3 -2 6 -13 5 -11 0 -14 -3 -6 -6z"/>
<path d="M5740 5970 c0 -5 7 -10 16 -10 8 0 12 5 9 10 -3 6 -10 10 -16 10 -5
0 -9 -4 -9 -10z"/>
<path d="M4552 5910 c-8 -14 -10 -26 -3 -38 8 -14 10 -13 16 10 10 37 3 52
-13 28z"/>
<path d="M4742 5914 c-12 -8 -19 -20 -16 -26 4 -7 2 -8 -5 -4 -6 4 -18 0 -27
-9 -10 -10 -24 -13 -37 -9 -17 5 -19 3 -14 -17 7 -28 -1 -69 -15 -69 -5 0 -7
4 -3 9 3 5 1 12 -5 16 -5 3 -10 -3 -10 -14 0 -28 -36 -47 -57 -29 -15 12 -16
9 -10 -19 4 -19 2 -33 -3 -33 -6 0 -10 -9 -10 -20 0 -10 -6 -23 -14 -27 -12
-7 -12 -17 -4 -55 12 -53 17 -56 53 -32 24 15 25 15 33 -5 7 -21 8 -21 40 10
18 17 32 37 32 44 0 8 6 20 13 27 8 7 17 28 20 46 4 19 16 47 28 63 12 17 18
33 15 37 -4 3 -11 0 -16 -8 -6 -10 -10 -11 -10 -3 0 7 -7 10 -15 7 -9 -4 -15
0 -15 9 0 8 13 17 33 21 23 5 28 9 18 15 -10 7 -9 12 8 23 14 10 19 21 15 33
-4 10 -1 21 7 26 8 5 9 9 4 9 -6 0 -21 -7 -33 -16z"/>
<path d="M4605 5860 c-3 -5 1 -10 9 -10 9 0 16 5 16 10 0 6 -4 10 -9 10 -6 0
-13 -4 -16 -10z"/>
<path d="M3120 5769 c0 -26 -3 -61 -7 -79 -4 -21 -2 -31 4 -27 5 3 23 -12 39
-33 30 -41 39 -46 49 -30 3 5 -7 23 -22 40 -31 35 -40 59 -42 110 -2 57 -21
74 -21 19z"/>
<path d="M3280 5771 c0 -9 -7 -11 -22 -8 -26 7 -48 -8 -48 -35 0 -19 8 -24 50
-32 14 -2 33 -7 43 -11 12 -5 17 -2 17 11 -1 22 -39 95 -40 75z"/>
<path d="M5185 5700 c3 -5 8 -10 11 -10 2 0 4 5 4 10 0 6 -5 10 -11 10 -5 0
-7 -4 -4 -10z"/>
<path d="M6422 5616 c2 -40 -1 -60 -9 -63 -7 -3 -13 4 -14 14 -1 13 -3 11 -8
-7 -4 -15 -3 -28 3 -32 6 -4 7 -8 2 -8 -6 0 -5 -5 1 -11 14 -14 67 -3 58 12
-4 5 -1 17 6 25 9 11 8 18 -6 34 -10 11 -15 26 -11 35 3 9 -1 26 -9 38 -15 21
-15 18 -13 -37z"/>
<path d="M6132 5584 c1 -9 9 -19 16 -22 9 -3 13 2 10 14 -1 9 -9 19 -16 22 -9
3 -13 -2 -10 -14z"/>
<path d="M6400 5480 c0 -5 4 -10 9 -10 6 0 13 5 16 10 3 6 -1 10 -9 10 -9 0
-16 -4 -16 -10z"/>
<path d="M6396 5452 c-10 -16 9 -30 21 -17 10 10 9 14 -2 19 -8 3 -16 2 -19
-2z"/>
<path d="M4686 5345 c18 -18 35 -25 62 -25 l37 1 -28 24 c-18 16 -40 25 -62
25 l-34 0 25 -25z"/>
<path d="M4560 5332 c0 -5 18 -21 40 -38 22 -16 40 -33 40 -37 0 -4 13 -22 30
-40 16 -18 30 -38 30 -44 0 -24 18 -13 23 14 6 34 -3 48 -72 107 -50 42 -91
59 -91 38z"/>
<path d="M6344 5326 c-10 -27 2 -43 14 -19 8 14 9 24 2 28 -6 3 -13 -1 -16 -9z"/>
<path d="M6370 5210 c0 -5 5 -10 10 -10 6 0 10 5 10 10 0 6 -4 10 -10 10 -5 0
-10 -4 -10 -10z"/>
<path d="M6304 5172 c-20 -13 -30 -43 -26 -73 3 -24 7 -27 18 -18 8 6 14 18
14 26 0 8 5 11 10 8 6 -3 10 -1 10 4 0 6 -5 11 -11 11 -7 0 -9 10 -5 25 7 27
6 28 -10 17z"/>
<path d="M6040 5110 c0 -5 5 -10 10 -10 6 0 10 5 10 10 0 6 -4 10 -10 10 -5 0
-10 -4 -10 -10z"/>
<path d="M5300 5072 c0 -4 5 -13 12 -20 9 -9 9 -12 0 -12 -14 0 -16 -29 -3
-49 5 -7 14 -10 20 -6 9 5 9 10 0 21 -6 7 -9 21 -5 29 6 18 -2 45 -15 45 -5 0
-9 -4 -9 -8z"/>
<path d="M6355 5067 c-4 -10 -5 -21 -1 -24 10 -10 18 4 13 24 -4 17 -4 17 -12
0z"/>
<path d="M6190 5030 c0 -5 5 -10 10 -10 6 0 10 5 10 10 0 6 -4 10 -10 10 -5 0
-10 -4 -10 -10z"/>
<path d="M6365 5000 c-3 -5 -1 -10 4 -10 6 0 11 5 11 10 0 6 -2 10 -4 10 -3 0
-8 -4 -11 -10z"/>
<path d="M4965 4980 c-3 -5 3 -10 14 -10 12 0 21 5 21 10 0 6 -6 10 -14 10 -8
0 -18 -4 -21 -10z"/>
<path d="M5338 4963 c7 -3 16 -2 19 1 4 3 -2 6 -13 5 -11 0 -14 -3 -6 -6z"/>
<path d="M5407 4952 c16 -13 19 -22 12 -39 -9 -25 -8 -25 -90 -27 -59 -2 -89
-17 -89 -45 0 -11 -9 -16 -32 -16 -18 0 -33 -4 -34 -10 0 -14 -54 -23 -81 -14
-16 6 -21 5 -17 -5 8 -21 -38 -36 -124 -40 -58 -2 -85 0 -90 9 -12 21 -48 27
-62 10 -10 -12 -25 -14 -69 -9 -56 7 -91 26 -91 51 0 7 -5 13 -10 13 -7 0 -7
-6 0 -20 9 -17 8 -20 -9 -20 -11 0 -25 9 -30 19 -11 19 -64 31 -157 36 -22 1
-54 8 -70 16 -24 12 -58 15 -106 10 -4 -1 -2 -15 4 -32 9 -27 13 -29 42 -23
17 3 28 3 24 -1 -4 -4 5 -20 20 -36 15 -15 38 -42 52 -59 22 -26 209 -160 225
-160 3 0 5 9 5 20 0 11 5 20 10 20 6 0 10 -8 10 -19 0 -19 55 -50 67 -37 3 3
-2 6 -13 6 -16 0 -17 2 -4 11 12 9 11 10 -7 6 -13 -3 -24 1 -27 10 -9 23 -7
25 14 18 15 -5 20 -2 21 12 0 10 6 3 13 -16 7 -20 15 -30 19 -24 4 6 1 23 -7
38 -17 33 -11 55 16 55 18 0 20 -4 13 -46 -3 -26 -9 -52 -11 -58 -2 -6 2 -20
10 -31 13 -18 14 -14 14 42 0 76 11 89 68 85 l43 -4 3 -76 c3 -71 4 -74 14
-42 7 23 7 46 0 72 -5 20 -8 40 -5 42 8 8 49 -6 44 -14 -3 -5 -1 -11 5 -15 5
-3 10 3 10 14 0 32 20 25 21 -6 1 -16 2 -35 3 -43 2 -8 4 -26 5 -40 l2 -25 10
24 c5 14 12 41 15 60 3 20 7 37 8 39 2 1 17 -1 34 -4 21 -4 31 -12 30 -23 -3
-38 3 -71 12 -71 6 0 8 21 5 51 -3 44 -1 51 18 58 12 5 22 8 23 7 1 0 4 -13 8
-28 7 -30 -9 -40 -17 -10 -3 9 -3 -1 -2 -23 7 -81 27 -105 61 -71 18 18 18 23
-1 23 -8 0 -15 -5 -15 -10 0 -6 -3 -7 -7 -3 -9 9 -12 116 -3 116 3 0 11 -20
18 -45 7 -25 17 -45 23 -45 5 0 7 5 4 10 -3 6 1 10 10 10 17 0 17 -2 -1 -45
-6 -14 55 -12 80 2 10 6 27 8 37 6 11 -3 30 2 44 11 13 9 33 16 44 16 11 0 24
6 28 13 11 16 63 50 63 40 0 -5 4 -3 8 2 16 22 54 37 65 26 19 -19 45 -12 64
15 10 14 32 42 50 63 32 37 36 49 34 88 -2 31 -65 67 -114 66 -22 -1 -51 6
-69 17 -24 14 -36 16 -51 9 -24 -14 -63 17 -47 36 12 14 -7 25 -43 25 l-22 0
22 -18z m-892 -142 c3 -5 -1 -10 -10 -10 -9 0 -13 5 -10 10 3 6 8 10 10 10 2
0 7 -4 10 -10z m25 -140 c0 -5 -4 -10 -10 -10 -5 0 -10 5 -10 10 0 6 5 10 10
10 6 0 10 -4 10 -10z m660 -42 c0 -5 -4 -8 -10 -8 -5 0 -10 10 -10 23 0 18 2
19 10 7 5 -8 10 -18 10 -22z"/>
<path d="M6385 4941 c-3 -5 -1 -12 5 -16 5 -3 10 1 10 9 0 18 -6 21 -15 7z"/>
<path d="M6181 4854 c0 -11 3 -14 6 -6 3 7 2 16 -1 19 -3 4 -6 -2 -5 -13z"/>
<path d="M4730 4811 c0 -10 30 -24 37 -17 3 3 2 9 -2 15 -8 13 -35 15 -35 2z"/>
<path d="M4928 4763 c6 -2 18 -2 25 0 6 3 1 5 -13 5 -14 0 -19 -2 -12 -5z"/>
<path d="M4731 4624 c0 -11 3 -14 6 -6 3 7 2 16 -1 19 -3 4 -6 -2 -5 -13z"/>
<path d="M5563 4633 c-22 -8 -14 -25 8 -18 14 5 25 2 30 -6 7 -11 9 -11 9 2 0
13 -24 33 -33 28 -1 0 -8 -3 -14 -6z"/>
<path d="M5025 4610 c3 -5 11 -10 16 -10 6 0 7 5 4 10 -3 6 -11 10 -16 10 -6
0 -7 -4 -4 -10z"/>
<path d="M4921 4583 c-1 -13 4 -23 9 -23 6 0 10 -7 10 -15 0 -33 15 -12 17 23
1 31 0 33 -7 12 l-7 -25 -11 25 c-10 24 -11 24 -11 3z"/>
<path d="M5026 4582 c-2 -4 -1 -14 5 -22 7 -12 9 -10 9 8 0 23 -5 28 -14 14z"/>
<path d="M4800 4570 c0 -5 5 -10 11 -10 5 0 7 5 4 10 -3 6 -8 10 -11 10 -2 0
-4 -4 -4 -10z"/>
<path d="M4836 4571 c-3 -5 1 -12 10 -15 22 -8 25 -4 9 11 -8 7 -16 9 -19 4z"/>
<path d="M4922 4530 c0 -14 2 -19 5 -12 2 6 2 18 0 25 -3 6 -5 1 -5 -13z"/>
<path d="M5031 4504 c0 -11 3 -14 6 -6 3 7 2 16 -1 19 -3 4 -6 -2 -5 -13z"/>
<path d="M5208 4463 c7 -3 16 -2 19 1 4 3 -2 6 -13 5 -11 0 -14 -3 -6 -6z"/>
<path d="M4910 4450 c-30 -4 -46 -8 -35 -9 19 -2 18 -3 -4 -15 -22 -12 -22
-13 -4 -18 11 -3 28 -1 37 4 11 6 21 6 29 0 26 -21 146 -29 158 -11 4 7 19 8
38 4 33 -7 39 2 21 34 -8 16 -23 18 -97 18 -48 0 -113 -3 -143 -7z"/>
<path d="M6270 4380 c0 -5 5 -10 10 -10 6 0 10 5 10 10 0 6 -4 10 -10 10 -5 0
-10 -4 -10 -10z"/>
<path d="M5040 4370 c0 -5 4 -10 9 -10 6 0 13 5 16 10 3 6 -1 10 -9 10 -9 0
-16 -4 -16 -10z"/>
<path d="M3705 4295 c12 -153 14 -231 15 -458 1 -193 3 -225 15 -213 8 7 12
24 9 37 -5 19 -4 21 5 9 9 -13 11 -13 11 2 0 9 3 23 6 32 4 11 1 16 -10 16
-18 0 -23 45 -5 55 13 9 3 219 -11 223 -6 2 -7 9 -3 15 12 19 14 147 3 147 -6
0 -9 31 -8 78 1 57 -3 85 -15 107 -17 30 -18 29 -12 -50z"/>
<path d="M5955 4040 c-3 -5 -1 -10 4 -10 6 0 11 5 11 10 0 6 -2 10 -4 10 -3 0
-8 -4 -11 -10z"/>
<path d="M5924 3615 c-2 -30 7 -32 23 -6 10 16 9 20 -3 25 -9 3 -16 6 -17 6
-1 0 -3 -11 -3 -25z"/>
<path d="M5915 3550 c-3 -6 1 -7 9 -4 18 7 21 14 7 14 -6 0 -13 -4 -16 -10z"/>
<path d="M5886 3481 c-10 -11 -25 -17 -34 -15 -15 5 -14 4 0 -6 14 -9 22 -7
39 8 12 12 30 18 42 16 21 -4 21 -4 2 5 -28 14 -30 13 -49 -8z"/>
<path d="M5930 3406 c0 -8 -3 -23 -6 -33 -6 -16 -5 -16 9 2 19 23 22 45 7 45
-5 0 -10 -6 -10 -14z"/>
<path d="M5950 3339 c0 -5 5 -7 10 -4 6 3 10 8 10 11 0 2 -4 4 -10 4 -5 0 -10
-5 -10 -11z"/>
<path d="M6000 3315 c0 -8 -4 -15 -9 -15 -5 0 -8 -8 -7 -17 5 -30 18 -20 22
15 2 17 2 32 -1 32 -3 0 -5 -7 -5 -15z"/>
<path d="M5598 3268 c5 -5 16 -8 23 -6 8 3 3 7 -10 11 -17 4 -21 3 -13 -5z"/>
<path d="M4460 3196 c0 -14 29 -31 38 -21 6 6 -18 35 -29 35 -5 0 -9 -6 -9
-14z"/>
<path d="M6008 3113 c7 -3 16 -2 19 1 4 3 -2 6 -13 5 -11 0 -14 -3 -6 -6z"/>
<path d="M5990 3090 c0 -5 5 -10 10 -10 6 0 10 5 10 10 0 6 -4 10 -10 10 -5 0
-10 -4 -10 -10z"/>
<path d="M6036 3031 c-4 -7 -5 -15 -2 -18 9 -9 19 4 14 18 -4 11 -6 11 -12 0z"/>
<path d="M6051 2963 c-9 -10 -10 -18 -3 -25 7 -7 12 -3 17 12 9 27 4 32 -14
13z"/>
<path d="M6081 2924 c0 -11 3 -14 6 -6 3 7 2 16 -1 19 -3 4 -6 -2 -5 -13z"/>
<path d="M5972 2738 c6 -18 28 -21 28 -4 0 9 -7 16 -16 16 -9 0 -14 -5 -12
-12z"/>
<path d="M6075 2650 c-3 -5 -1 -10 4 -10 6 0 11 5 11 10 0 6 -2 10 -4 10 -3 0
-8 -4 -11 -10z"/>
<path d="M4195 2450 c-7 -12 2 -30 16 -30 12 0 12 27 0 35 -5 3 -12 1 -16 -5z"/>
<path d="M4620 2286 c0 -8 5 -18 10 -21 6 -3 10 3 10 14 0 12 -4 21 -10 21 -5
0 -10 -6 -10 -14z"/>
<path d="M4430 2260 c0 -5 5 -10 10 -10 6 0 10 5 10 10 0 6 -4 10 -10 10 -5 0
-10 -4 -10 -10z"/>
<path d="M4480 2245 c0 -9 6 -12 15 -9 8 4 12 10 9 15 -8 14 -24 10 -24 -6z"/>
<path d="M6025 6820 c-13 -6 -15 -9 -5 -9 8 0 22 4 30 9 18 12 2 12 -25 0z"/>
<path d="M6070 6816 c0 -9 50 -12 62 -5 8 6 -1 9 -24 9 -21 0 -38 -2 -38 -4z"/>
<path d="M6275 6780 c-3 -5 3 -10 14 -10 11 0 23 5 26 10 3 6 -3 10 -14 10
-11 0 -23 -4 -26 -10z"/>
<path d="M6025 6730 c-3 -5 3 -10 15 -10 12 0 18 5 15 10 -3 6 -10 10 -15 10
-5 0 -12 -4 -15 -10z"/>
<path d="M4035 9140 c3 -5 10 -10 16 -10 5 0 9 5 9 10 0 6 -7 10 -16 10 -8 0
-12 -4 -9 -10z"/>
<path d="M3640 9115 c7 -8 17 -15 22 -15 5 0 23 -13 41 -30 17 -16 33 -27 35
-25 4 4 -32 37 -77 72 -22 17 -36 16 -21 -2z"/>
<path d="M3978 9083 c7 -3 16 -2 19 1 4 3 -2 6 -13 5 -11 0 -14 -3 -6 -6z"/>
<path d="M2560 9024 c0 -8 5 -12 10 -9 6 3 10 10 10 16 0 5 -4 9 -10 9 -5 0
-10 -7 -10 -16z"/>
<path d="M2648 9003 c7 -3 16 -2 19 1 4 3 -2 6 -13 5 -11 0 -14 -3 -6 -6z"/>
<path d="M2596 8965 c-4 -10 1 -15 16 -15 17 0 18 2 8 15 -7 8 -14 15 -15 15
-2 0 -5 -7 -9 -15z"/>
<path d="M2698 8963 c7 -3 16 -2 19 1 4 3 -2 6 -13 5 -11 0 -14 -3 -6 -6z"/>
<path d="M3048 8893 c7 -3 16 -2 19 1 4 3 -2 6 -13 5 -11 0 -14 -3 -6 -6z"/>
<path d="M3098 8893 c7 -3 16 -2 19 1 4 3 -2 6 -13 5 -11 0 -14 -3 -6 -6z"/>
<path d="M2598 8883 c6 -2 18 -2 25 0 6 3 1 5 -13 5 -14 0 -19 -2 -12 -5z"/>
<path d="M3623 8864 c-51 -25 -39 -35 15 -12 57 25 61 28 36 28 -10 0 -34 -8
-51 -16z"/>
<path d="M2720 8820 c0 -5 5 -10 11 -10 5 0 7 5 4 10 -3 6 -8 10 -11 10 -2 0
-4 -4 -4 -10z"/>
<path d="M2888 8803 c7 -3 16 -2 19 1 4 3 -2 6 -13 5 -11 0 -14 -3 -6 -6z"/>
<path d="M2876 8705 c4 -8 8 -15 10 -15 2 0 4 7 4 15 0 8 -4 15 -10 15 -5 0
-7 -7 -4 -15z"/>
<path d="M2951 8704 c0 -11 3 -14 6 -6 3 7 2 16 -1 19 -3 4 -6 -2 -5 -13z"/>
<path d="M2840 8680 c0 -5 5 -10 10 -10 6 0 10 5 10 10 0 6 -4 10 -10 10 -5 0
-10 -4 -10 -10z"/>
<path d="M2551 8654 c0 -11 3 -14 6 -6 3 7 2 16 -1 19 -3 4 -6 -2 -5 -13z"/>
<path d="M3065 8650 c-3 -5 3 -10 15 -10 12 0 18 5 15 10 -3 6 -10 10 -15 10
-5 0 -12 -4 -15 -10z"/>
<path d="M2820 8639 c0 -5 5 -7 10 -4 6 3 10 8 10 11 0 2 -4 4 -10 4 -5 0 -10
-5 -10 -11z"/>
<path d="M3233 8623 c9 -2 25 -2 35 0 9 3 1 5 -18 5 -19 0 -27 -2 -17 -5z"/>
<path d="M3048 8553 c6 -2 18 -2 25 0 6 3 1 5 -13 5 -14 0 -19 -2 -12 -5z"/>
<path d="M3201 8534 c0 -11 3 -14 6 -6 3 7 2 16 -1 19 -3 4 -6 -2 -5 -13z"/>
<path d="M3244 8511 c3 -5 15 -11 26 -14 17 -4 19 -3 9 9 -12 15 -44 20 -35 5z"/>
<path d="M3048 8483 c6 -2 18 -2 25 0 6 3 1 5 -13 5 -14 0 -19 -2 -12 -5z"/>
<path d="M3138 8473 c7 -3 16 -2 19 1 4 3 -2 6 -13 5 -11 0 -14 -3 -6 -6z"/>
<path d="M3130 8440 c0 -5 7 -10 15 -10 8 0 15 5 15 10 0 6 -7 10 -15 10 -8 0
-15 -4 -15 -10z"/>
<path d="M3210 8416 c0 -9 5 -16 10 -16 6 0 10 4 10 9 0 6 -4 13 -10 16 -5 3
-10 -1 -10 -9z"/>
<path d="M3138 8403 c7 -3 16 -2 19 1 4 3 -2 6 -13 5 -11 0 -14 -3 -6 -6z"/>
<path d="M2963 8360 c0 -25 2 -35 4 -22 2 12 2 32 0 45 -2 12 -4 2 -4 -23z"/>
<path d="M3060 8389 c0 -5 5 -7 10 -4 6 3 10 8 10 11 0 2 -4 4 -10 4 -5 0 -10
-5 -10 -11z"/>
<path d="M3105 8390 c3 -5 8 -10 11 -10 2 0 4 5 4 10 0 6 -5 10 -11 10 -5 0
-7 -4 -4 -10z"/>
<path d="M3041 8364 c0 -11 3 -14 6 -6 3 7 2 16 -1 19 -3 4 -6 -2 -5 -13z"/>
<path d="M3120 8277 c0 -14 5 -29 10 -32 7 -4 8 3 4 22 -9 38 -14 42 -14 10z"/>
<path d="M3150 8280 c0 -5 5 -10 10 -10 6 0 10 5 10 10 0 6 -4 10 -10 10 -5 0
-10 -4 -10 -10z"/>
<path d="M2950 8000 c-9 -6 -10 -10 -3 -10 6 0 15 5 18 10 8 12 4 12 -15 0z"/>
<path d="M2580 7969 c0 -5 5 -7 10 -4 6 3 10 8 10 11 0 2 -4 4 -10 4 -5 0 -10
-5 -10 -11z"/>
<path d="M2636 7967 c3 -10 9 -15 12 -12 3 3 0 11 -7 18 -10 9 -11 8 -5 -6z"/>
<path d="M2960 7971 c0 -5 5 -13 10 -16 6 -3 10 -2 10 4 0 5 -4 13 -10 16 -5
3 -10 2 -10 -4z"/>
<path d="M2515 7930 c-3 -5 1 -10 10 -10 9 0 13 5 10 10 -3 6 -8 10 -10 10 -2
0 -7 -4 -10 -10z"/>
<path d="M2966 7932 c-3 -6 1 -13 10 -16 23 -9 28 -2 10 13 -8 7 -17 8 -20 3z"/>
<path d="M2578 7923 c7 -3 16 -2 19 1 4 3 -2 6 -13 5 -11 0 -14 -3 -6 -6z"/>
<path d="M2880 7894 c0 -7 40 -44 47 -44 12 0 -1 20 -22 34 -14 9 -25 14 -25
10z"/>
<path d="M2505 7870 c-3 -5 3 -10 15 -10 12 0 18 5 15 10 -3 6 -10 10 -15 10
-5 0 -12 -4 -15 -10z"/>
<path d="M2640 7850 c0 -5 17 -10 38 -9 30 0 33 2 17 9 -28 12 -55 12 -55 0z"/>
<path d="M2830 7810 c0 -5 5 -10 10 -10 6 0 10 5 10 10 0 6 -4 10 -10 10 -5 0
-10 -4 -10 -10z"/>
<path d="M2748 7753 c6 -2 18 -2 25 0 6 3 1 5 -13 5 -14 0 -19 -2 -12 -5z"/>
<path d="M2320 6977 c0 -9 4 -17 9 -17 5 0 11 -10 14 -22 3 -20 5 -21 11 -6 5
11 1 24 -13 39 -18 19 -21 20 -21 6z"/>
<path d="M2325 6880 c-3 -5 -1 -10 4 -10 6 0 11 5 11 10 0 6 -2 10 -4 10 -3 0
-8 -4 -11 -10z"/>
<path d="M2255 6860 c-4 -6 -2 -17 4 -23 15 -15 25 -2 13 19 -7 12 -11 13 -17
4z"/>
<path d="M2310 6825 c0 -16 3 -24 8 -19 4 5 11 11 15 15 4 3 1 12 -8 19 -13
11 -15 9 -15 -15z"/>
<path d="M2232 6760 c0 -14 2 -19 5 -12 2 6 2 18 0 25 -3 6 -5 1 -5 -13z"/>
<path d="M2322 6720 c0 -19 2 -27 5 -17 2 9 2 25 0 35 -3 9 -5 1 -5 -18z"/>
<path d="M2350 6705 c0 -8 5 -15 10 -15 6 0 10 7 10 15 0 8 -4 15 -10 15 -5 0
-10 -7 -10 -15z"/>
<path d="M2020 6650 c0 -5 5 -10 10 -10 6 0 10 5 10 10 0 6 -4 10 -10 10 -5 0
-10 -4 -10 -10z"/>
<path d="M2150 6650 c-9 -6 -10 -10 -3 -10 6 0 15 5 18 10 8 12 4 12 -15 0z"/>
<path d="M2178 6633 c6 -2 18 -2 25 0 6 3 1 5 -13 5 -14 0 -19 -2 -12 -5z"/>
<path d="M2260 6600 c0 -22 5 -40 10 -40 6 0 10 18 10 40 0 22 -4 40 -10 40
-5 0 -10 -18 -10 -40z"/>
<path d="M2226 6601 c-4 -7 -5 -15 -2 -18 9 -9 19 4 14 18 -4 11 -6 11 -12 0z"/>
<path d="M2230 6521 c0 -22 -5 -42 -12 -44 -8 -3 -6 -6 5 -6 14 -1 17 8 17 44
0 25 -2 45 -5 45 -3 0 -5 -18 -5 -39z"/>
<path d="M2160 6460 c0 -5 9 -10 19 -10 11 0 23 -4 26 -10 8 -12 35 -13 35 -1
0 5 -14 14 -31 20 -39 14 -49 14 -49 1z"/>
<path d="M2060 6430 c0 -5 5 -10 10 -10 6 0 10 5 10 10 0 6 -4 10 -10 10 -5 0
-10 -4 -10 -10z"/>
<path d="M2068 6383 c6 -2 12 -13 12 -23 0 -10 -6 -21 -12 -23 -8 -4 -9 -6 -2
-6 6 -1 17 6 24 14 10 12 10 18 0 30 -7 8 -18 15 -24 14 -7 0 -6 -2 2 -6z"/>
<path d="M2175 6300 c-8 -13 20 -24 41 -16 20 8 9 26 -16 26 -10 0 -22 -5 -25
-10z"/>
<path d="M2082 6280 c0 -14 2 -19 5 -12 2 6 2 18 0 25 -3 6 -5 1 -5 -13z"/>
<path d="M2152 6280 c0 -14 2 -19 5 -12 2 6 2 18 0 25 -3 6 -5 1 -5 -13z"/>
<path d="M2080 6229 c0 -5 5 -7 10 -4 6 3 10 8 10 11 0 2 -4 4 -10 4 -5 0 -10
-5 -10 -11z"/>
<path d="M2080 6170 c0 -5 5 -10 11 -10 5 0 7 5 4 10 -3 6 -8 10 -11 10 -2 0
-4 -4 -4 -10z"/>
<path d="M1986 5985 c4 -8 12 -15 20 -15 19 0 18 16 -2 24 -22 9 -24 8 -18 -9z"/>
<path d="M1904 5968 c3 -7 9 -21 12 -30 4 -10 10 -18 14 -18 5 0 3 14 -3 30
-6 17 -15 30 -20 30 -5 0 -6 -6 -3 -12z"/>
<path d="M2060 5960 c0 -5 5 -10 10 -10 6 0 10 5 10 10 0 6 -4 10 -10 10 -5 0
-10 -4 -10 -10z"/>
<path d="M1825 5950 c-3 -5 -1 -10 4 -10 6 0 11 5 11 10 0 6 -2 10 -4 10 -3 0
-8 -4 -11 -10z"/>
<path d="M2000 5940 c0 -5 5 -10 10 -10 6 0 10 5 10 10 0 6 -4 10 -10 10 -5 0
-10 -4 -10 -10z"/>
<path d="M1848 5923 c7 -3 16 -2 19 1 4 3 -2 6 -13 5 -11 0 -14 -3 -6 -6z"/>
<path d="M2057 5923 c-4 -3 -7 -24 -7 -45 0 -27 4 -38 15 -38 11 0 15 12 15
45 0 42 -7 54 -23 38z"/>
<path d="M2090 5890 c0 -11 5 -20 10 -20 6 0 10 9 10 20 0 11 -4 20 -10 20 -5
0 -10 -9 -10 -20z"/>
<path d="M2130 5890 c0 -11 5 -20 10 -20 6 0 10 9 10 20 0 11 -4 20 -10 20 -5
0 -10 -9 -10 -20z"/>
<path d="M2090 5850 c0 -5 5 -10 10 -10 6 0 10 5 10 10 0 6 -4 10 -10 10 -5 0
-10 -4 -10 -10z"/>
<path d="M2130 5850 c0 -5 5 -10 10 -10 6 0 10 5 10 10 0 6 -4 10 -10 10 -5 0
-10 -4 -10 -10z"/>
<path d="M1760 5824 c0 -8 11 -14 25 -14 14 0 25 4 25 9 0 5 -11 11 -25 13
-17 4 -25 1 -25 -8z"/>
<path d="M1985 5830 c3 -5 8 -10 11 -10 2 0 4 5 4 10 0 6 -5 10 -11 10 -5 0
-7 -4 -4 -10z"/>
<path d="M1905 5810 c-3 -5 -3 -15 1 -21 6 -11 23 6 24 24 0 10 -18 9 -25 -3z"/>
<path d="M2000 5775 c0 -9 6 -12 15 -9 8 4 12 10 9 15 -8 14 -24 10 -24 -6z"/>
<path d="M2056 5782 c-9 -15 39 -34 75 -29 32 4 31 4 -8 5 -31 2 -43 6 -43 17
0 16 -16 20 -24 7z"/>
<path d="M1960 5770 c0 -5 5 -10 11 -10 5 0 7 5 4 10 -3 6 -8 10 -11 10 -2 0
-4 -4 -4 -10z"/>
<path d="M1761 5744 c0 -11 3 -14 6 -6 3 7 2 16 -1 19 -3 4 -6 -2 -5 -13z"/>
<path d="M1831 5744 c0 -11 3 -14 6 -6 3 7 2 16 -1 19 -3 4 -6 -2 -5 -13z"/>
<path d="M1872 5729 c-35 -31 -41 -49 -17 -49 11 0 15 -11 15 -40 0 -29 -4
-40 -15 -40 -11 0 -15 -11 -15 -40 0 -31 -4 -40 -17 -40 -17 -1 -17 -1 0 -14
9 -7 17 -19 17 -26 0 -7 -8 -19 -17 -26 -16 -12 -10 -13 40 -14 l57 0 0 40 c0
22 5 40 10 40 6 0 5 8 -2 20 -10 16 -10 24 0 40 11 18 10 20 -8 20 -17 0 -20
7 -20 40 0 22 5 40 10 40 6 0 10 6 10 14 0 10 14 16 43 19 l42 4 -42 1 c-55 3
-56 22 -1 22 52 0 47 6 -13 12 -39 4 -49 1 -77 -23z"/>
<path d="M1738 5663 c7 -3 16 -2 19 1 4 3 -2 6 -13 5 -11 0 -14 -3 -6 -6z"/>
<path d="M1548 5593 c7 -3 16 -2 19 1 4 3 -2 6 -13 5 -11 0 -14 -3 -6 -6z"/>
<path d="M1991 5581 c17 -26 89 -31 89 -6 0 10 -10 15 -34 15 -19 0 -42 3 -51
6 -15 6 -15 4 -4 -15z"/>
<path d="M1944 5569 c-10 -17 13 -36 27 -22 12 12 4 33 -11 33 -5 0 -12 -5
-16 -11z"/>
<path d="M1578 5563 c7 -3 16 -2 19 1 4 3 -2 6 -13 5 -11 0 -14 -3 -6 -6z"/>
<path d="M1760 5480 c0 -13 5 -20 13 -17 6 2 12 10 12 17 0 7 -6 15 -12 18 -8
2 -13 -5 -13 -18z"/>
<path d="M1938 5433 c6 -2 18 -2 25 0 6 3 1 5 -13 5 -14 0 -19 -2 -12 -5z"/>
<path d="M1840 5410 c0 -5 18 -10 40 -10 22 0 40 5 40 10 0 6 -18 10 -40 10
-22 0 -40 -4 -40 -10z"/>
<path d="M1930 5400 c0 -5 9 -10 20 -10 11 0 20 5 20 10 0 6 -9 10 -20 10 -11
0 -20 -4 -20 -10z"/>
<path d="M1858 5363 c12 -2 32 -2 45 0 12 2 2 4 -23 4 -25 0 -35 -2 -22 -4z"/>
<path d="M1778 5343 c12 -2 32 -2 45 0 12 2 2 4 -23 4 -25 0 -35 -2 -22 -4z"/>
<path d="M1592 4920 c-21 -69 -15 -84 24 -55 10 8 29 15 42 15 28 0 30 32 2
60 -32 32 -53 25 -68 -20z m36 -28 c2 -7 -3 -12 -12 -12 -9 0 -16 7 -16 16 0
17 22 14 28 -4z"/>
<path d="M1504 4529 c-3 -6 -1 -16 5 -22 8 -8 11 -5 11 11 0 24 -5 28 -16 11z"/>
<path d="M1511 4440 c0 -40 2 -42 11 -22 8 16 8 28 0 45 -9 19 -11 17 -11 -23z"/>
<path d="M1378 4463 c12 -2 32 -2 45 0 12 2 2 4 -23 4 -25 0 -35 -2 -22 -4z"/>
<path d="M1358 4433 c18 -2 45 -2 60 0 15 2 0 4 -33 4 -33 0 -45 -2 -27 -4z"/>
<path d="M1390 4390 c0 -5 5 -10 10 -10 6 0 10 5 10 10 0 6 -4 10 -10 10 -5 0
-10 -4 -10 -10z"/>
<path d="M1415 4347 c-4 -10 -5 -21 -1 -24 10 -10 18 4 13 24 -4 17 -4 17 -12
0z"/>
<path d="M1309 4329 c-10 -6 -4 -9 19 -9 17 0 32 2 32 4 0 9 -39 13 -51 5z"/>
<path d="M1463 4309 c11 -7 23 -7 35 0 14 9 11 10 -18 10 -29 0 -32 -1 -17
-10z"/>
<path d="M1298 4283 c12 -2 32 -2 45 0 12 2 2 4 -23 4 -25 0 -35 -2 -22 -4z"/>
<path d="M1455 4270 c-8 -13 20 -24 41 -16 20 8 9 26 -16 26 -10 0 -22 -5 -25
-10z"/>
<path d="M1423 4263 c-18 -7 -16 -23 2 -23 8 0 15 7 15 15 0 8 -1 15 -2 14 -2
0 -9 -3 -15 -6z"/>
<path d="M1298 4253 c12 -2 32 -2 45 0 12 2 2 4 -23 4 -25 0 -35 -2 -22 -4z"/>
<path d="M1347 4173 c-7 -11 10 -40 18 -31 4 4 3 14 -3 24 -5 9 -12 12 -15 7z"/>
<path d="M1386 4121 c-8 -12 5 -101 14 -101 9 0 22 89 14 101 -3 5 -9 9 -14 9
-5 0 -11 -4 -14 -9z"/>
<path d="M1440 4112 c0 -4 18 -7 40 -7 22 0 40 3 40 7 0 5 -18 8 -40 8 -22 0
-40 -3 -40 -8z"/>
<path d="M1316 4095 c-3 -8 -1 -15 4 -15 6 0 10 7 10 15 0 8 -2 15 -4 15 -2 0
-6 -7 -10 -15z"/>
<path d="M1453 4082 c13 -2 17 -13 17 -43 0 -21 5 -39 10 -39 6 0 10 18 10 41
0 26 4 38 11 33 6 -3 9 -22 7 -40 -2 -19 0 -34 4 -34 4 0 8 20 8 44 l0 43 -42
0 c-24 0 -35 -2 -25 -5z"/>
<path d="M1361 4044 c0 -11 3 -14 6 -6 3 7 2 16 -1 19 -3 4 -6 -2 -5 -13z"/>
<path d="M1430 4046 c0 -8 5 -18 10 -21 6 -3 10 3 10 14 0 12 -4 21 -10 21 -5
0 -10 -6 -10 -14z"/>
<path d="M9465 4011 c-4 -7 16 -11 61 -11 80 0 80 5 2 14 -36 5 -58 3 -63 -3z"/>
<path d="M1360 3980 c0 -5 9 -10 20 -10 11 0 20 5 20 10 0 6 -9 10 -20 10 -11
0 -20 -4 -20 -10z"/>
<path d="M1410 3960 c0 -5 7 -10 15 -10 8 0 15 5 15 10 0 6 -7 10 -15 10 -8 0
-15 -4 -15 -10z"/>
<path d="M1360 3940 c0 -5 4 -10 9 -10 6 0 13 5 16 10 3 6 -1 10 -9 10 -9 0
-16 -4 -16 -10z"/>
<path d="M1303 3803 c-18 -7 -16 -23 2 -23 8 0 15 7 15 15 0 8 -1 15 -2 14 -2
0 -9 -3 -15 -6z"/>
<path d="M1346 3755 c-3 -8 -11 -15 -18 -15 -7 0 -21 -14 -30 -30 l-17 -30 39
0 c22 0 40 5 40 11 0 6 -9 8 -21 4 -17 -6 -20 -3 -17 12 2 10 11 17 21 17 12
-1 17 6 17 22 0 27 -5 31 -14 9z"/>
<path d="M1373 3640 c0 -22 4 -40 8 -40 5 0 9 18 9 40 0 22 -4 40 -9 40 -4 0
-8 -18 -8 -40z"/>
<path d="M1280 3640 c0 -17 7 -20 40 -20 33 0 40 3 40 20 0 17 -7 20 -40 20
-33 0 -40 -3 -40 -20z"/>
<path d="M1260 3588 c-25 -11 -25 -11 -2 -15 24 -5 28 -13 11 -30 -7 -7 -6
-12 5 -16 13 -5 16 1 16 33 0 22 -1 40 -2 39 -2 0 -14 -5 -28 -11z"/>
<path d="M1198 3563 c7 -3 16 -2 19 1 4 3 -2 6 -13 5 -11 0 -14 -3 -6 -6z"/>
<path d="M1198 3528 c5 -5 16 -8 23 -6 8 3 3 7 -10 11 -17 4 -21 3 -13 -5z"/>
<path d="M1098 3483 c7 -3 16 -2 19 1 4 3 -2 6 -13 5 -11 0 -14 -3 -6 -6z"/>
<path d="M9508 3453 c12 -2 30 -2 40 0 9 3 -1 5 -23 4 -22 0 -30 -2 -17 -4z"/>
<path d="M9407 3413 c-26 -22 -52 -55 -61 -78 -18 -47 -23 -172 -5 -142 6 11
9 33 6 50 -5 38 27 114 60 140 13 10 23 24 23 32 0 8 8 11 23 8 16 -3 18 -2 8
5 -11 8 -10 11 5 15 15 4 16 5 2 6 -9 0 -37 -16 -61 -36z"/>
<path d="M1280 3400 c0 -29 4 -40 15 -40 11 0 15 11 15 40 0 29 -4 40 -15 40
-11 0 -15 -11 -15 -40z"/>
<path d="M1193 3345 c-9 -25 4 -29 17 -6 7 15 7 21 0 21 -6 0 -13 -7 -17 -15z"/>
<path d="M1140 3334 c0 -8 5 -12 10 -9 6 3 10 10 10 16 0 5 -4 9 -10 9 -5 0
-10 -7 -10 -16z"/>
<path d="M1121 3304 c0 -11 3 -14 6 -6 3 7 2 16 -1 19 -3 4 -6 -2 -5 -13z"/>
<path d="M1166 3311 c-4 -7 -5 -15 -2 -18 9 -9 19 4 14 18 -4 11 -6 11 -12 0z"/>
<path d="M1200 3295 c0 -8 5 -15 10 -15 6 0 10 -18 10 -40 0 -22 5 -40 10 -40
19 0 11 69 -10 90 -16 16 -20 17 -20 5z"/>
<path d="M9490 3290 c0 -5 5 -10 10 -10 6 0 10 5 10 10 0 6 -4 10 -10 10 -5 0
-10 -4 -10 -10z"/>
<path d="M1040 3269 c0 -5 5 -7 10 -4 6 3 10 8 10 11 0 2 -4 4 -10 4 -5 0 -10
-5 -10 -11z"/>
<path d="M9510 3258 c0 -5 7 -8 16 -8 8 0 12 -5 9 -10 -4 -6 -11 -8 -16 -5 -5
4 -9 1 -9 -4 0 -6 18 -11 40 -11 35 0 40 3 40 23 0 20 -5 23 -40 22 -22 0 -40
-3 -40 -7z m70 -18 c0 -5 -4 -10 -10 -10 -5 0 -10 5 -10 10 0 6 5 10 10 10 6
0 10 -4 10 -10z"/>
<path d="M9341 3104 c0 -11 3 -14 6 -6 3 7 2 16 -1 19 -3 4 -6 -2 -5 -13z"/>
<path d="M855 2820 c-3 -5 1 -10 9 -10 9 0 16 5 16 10 0 6 -4 10 -9 10 -6 0
-13 -4 -16 -10z"/>
<path d="M7457 2729 c7 -7 15 -10 18 -7 3 3 -2 9 -12 12 -14 6 -15 5 -6 -5z"/>
<path d="M808 2713 c7 -3 16 -2 19 1 4 3 -2 6 -13 5 -11 0 -14 -3 -6 -6z"/>
<path d="M813 2683 c9 -2 25 -2 35 0 9 3 1 5 -18 5 -19 0 -27 -2 -17 -5z"/>
<path d="M843 2653 c9 -2 23 -2 30 0 6 3 -1 5 -18 5 -16 0 -22 -2 -12 -5z"/>
<path d="M840 2630 c0 -5 5 -10 10 -10 6 0 10 5 10 10 0 6 -4 10 -10 10 -5 0
-10 -4 -10 -10z"/>
<path d="M800 2584 c0 -8 5 -12 10 -9 6 3 10 10 10 16 0 5 -4 9 -10 9 -5 0
-10 -7 -10 -16z"/>
<path d="M705 2570 c-3 -5 -1 -10 4 -10 6 0 11 5 11 10 0 6 -2 10 -4 10 -3 0
-8 -4 -11 -10z"/>
<path d="M625 2430 c-3 -5 -1 -10 4 -10 6 0 11 5 11 10 0 6 -2 10 -4 10 -3 0
-8 -4 -11 -10z"/>
<path d="M712 2350 c0 -19 2 -27 5 -17 2 9 2 25 0 35 -3 9 -5 1 -5 -18z"/>
<path d="M641 2354 c0 -11 3 -14 6 -6 3 7 2 16 -1 19 -3 4 -6 -2 -5 -13z"/>
<path d="M676 2341 c-4 -7 -5 -15 -2 -18 9 -9 19 4 14 18 -4 11 -6 11 -12 0z"/>
<path d="M9335 2260 c3 -5 13 -10 21 -10 8 0 12 5 9 10 -3 6 -13 10 -21 10 -8
0 -12 -4 -9 -10z"/>
<path d="M481 2244 c0 -11 3 -14 6 -6 3 7 2 16 -1 19 -3 4 -6 -2 -5 -13z"/>
<path d="M9439 2199 c18 -11 38 -18 44 -16 6 2 -4 11 -22 20 -48 24 -63 21
-22 -4z"/>
<path d="M9500 2176 c0 -2 7 -6 15 -10 8 -3 15 -1 15 4 0 6 -7 10 -15 10 -8 0
-15 -2 -15 -4z"/>
<path d="M515 2159 c-10 -15 3 -25 16 -12 7 7 7 13 1 17 -6 3 -14 1 -17 -5z"/>
<path d="M578 2153 c7 -3 16 -2 19 1 4 3 -2 6 -13 5 -11 0 -14 -3 -6 -6z"/>
<path d="M540 2130 c0 -5 5 -10 10 -10 6 0 10 5 10 10 0 6 -4 10 -10 10 -5 0
-10 -4 -10 -10z"/>
<path d="M611 2049 c0 -9 5 -21 12 -27 10 -8 16 -6 25 9 7 11 8 19 2 19 -5 0
-10 -4 -10 -10 0 -17 -18 -11 -23 8 -4 14 -5 14 -6 1z"/>
<path d="M385 2040 c-3 -5 -1 -10 4 -10 6 0 11 5 11 10 0 6 -2 10 -4 10 -3 0
-8 -4 -11 -10z"/>
<path d="M310 2009 c0 -5 5 -7 10 -4 6 3 10 8 10 11 0 2 -4 4 -10 4 -5 0 -10
-5 -10 -11z"/>
<path d="M350 2005 c-11 -13 -10 -14 4 -9 9 3 16 10 16 15 0 13 -6 11 -20 -6z"/>
<path d="M640 1989 c0 -5 5 -7 10 -4 6 3 10 8 10 11 0 2 -4 4 -10 4 -5 0 -10
-5 -10 -11z"/>
<path d="M310 1973 c0 -11 -63 -47 -75 -44 -5 1 -5 -3 2 -10 9 -9 20 -7 47 11
20 12 36 28 36 36 0 8 -2 14 -5 14 -3 0 -5 -3 -5 -7z"/>
<path d="M240 896 c0 -20 5 -36 10 -36 6 0 10 13 10 29 0 17 -4 33 -10 36 -6
4 -10 -8 -10 -29z"/>
<path d="M88 36 c9 -20 20 -36 24 -36 10 0 -18 64 -30 68 -6 2 -3 -13 6 -32z"/>
</g>
</svg>
